<svg width="284" height="284" viewBox="0 0 284 284" fill="none" xmlns="http://www.w3.org/2000/svg">
<path d="M142 276.15C218.072 276.15 279.74 240.039 279.74 195.494C279.74 150.949 218.072 114.838 142 114.838C65.9283 114.838 4.26001 150.949 4.26001 195.494C4.26001 240.039 65.9283 276.15 142 276.15Z" fill="#B7EDE8"/>
<path d="M85.2 130.146L17.9488 168.98C16.5288 169.804 16.5288 171.133 17.9488 171.951L173.984 262.143C175.66 263.005 177.582 263.262 179.426 262.87C209.041 254.759 232.181 240.94 247.018 224.087C247.271 223.819 247.459 223.496 247.566 223.142C247.673 222.788 247.696 222.415 247.633 222.051C247.57 221.687 247.423 221.343 247.204 221.045C246.985 220.748 246.699 220.506 246.37 220.339L90.3631 130.146C89.5637 129.738 88.679 129.525 87.7815 129.525C86.8841 129.525 85.9994 129.738 85.2 130.146Z" fill="#EBEBEB"/>
<path d="M64.6101 225.343C75.6303 225.343 84.5639 220.186 84.5639 213.824C84.5639 207.462 75.6303 202.305 64.6101 202.305C53.5899 202.305 44.6562 207.462 44.6562 213.824C44.6562 220.186 53.5899 225.343 64.6101 225.343Z" fill="#EBEBEB"/>
<path d="M225.445 156.2C218.061 160.46 218.061 167.367 225.445 171.627C232.829 175.887 244.757 175.887 252.141 171.627C259.525 167.367 259.525 160.46 252.141 156.2C244.757 151.94 232.817 151.94 225.445 156.2Z" fill="#EBEBEB"/>
<path d="M248.784 120.087L247.296 119.331L240.19 135.184V116.15H237.424V131.486L230.182 117.883L228.768 118.763L237.424 134.667V163.533C237.434 163.656 237.478 163.773 237.55 163.873C237.622 163.973 237.72 164.052 237.833 164.101C238.138 164.258 238.476 164.34 238.818 164.34C239.161 164.34 239.499 164.258 239.804 164.101C239.916 164.051 240.012 163.972 240.083 163.872C240.154 163.772 240.197 163.655 240.207 163.533V138.876L248.784 120.087Z" fill="#E0E0E0"/>
<path d="M274.48 106.423C277.192 94.9338 270.076 83.4221 258.588 80.7105C247.099 77.9989 235.587 85.1142 232.876 96.603C230.164 108.092 237.279 119.603 248.768 122.315C260.257 125.027 271.769 117.911 274.48 106.423Z" fill="#F0F0F0"/>
<path d="M260.388 96.0544C263.143 87.3697 266.068 83.973 264.217 82.9165C260.676 80.9136 256.637 79.9628 252.574 80.1758C248.511 80.3889 244.594 81.7569 241.282 84.1192C237.97 86.4815 235.401 89.74 233.876 93.5118C232.352 97.2836 231.936 101.412 232.677 105.412C233.417 109.412 235.284 113.118 238.058 116.094C240.832 119.07 244.398 121.192 248.336 122.212C252.274 123.232 256.422 123.106 260.291 121.85C264.161 120.594 267.592 118.26 270.181 115.122C263.847 116.974 256.815 107.312 260.388 96.0544Z" fill="#E0E0E0"/>
<path d="M235.038 107.568C235.038 110.539 234.157 113.444 232.506 115.915C230.856 118.385 228.509 120.311 225.764 121.448C223.019 122.585 219.998 122.883 217.084 122.303C214.17 121.723 211.493 120.292 209.392 118.191C207.29 116.09 205.86 113.413 205.28 110.499C204.7 107.585 204.998 104.564 206.135 101.819C207.272 99.0736 209.198 96.7272 211.668 95.0764C214.139 93.4256 217.043 92.5444 220.015 92.5444C223.999 92.5444 227.821 94.1273 230.638 96.9448C233.456 99.7622 235.038 103.584 235.038 107.568Z" fill="#F0F0F0"/>
<path d="M220.015 92.5444C216.862 92.5432 213.789 93.5371 211.233 95.3844C210.825 104.563 218.617 113.515 216.442 116.52C214.267 119.524 208.899 117.684 207.03 115.128C208.355 117.406 210.256 119.295 212.542 120.606C214.828 121.917 217.419 122.604 220.054 122.597C222.689 122.591 225.276 121.891 227.555 120.569C229.835 119.246 231.726 117.348 233.04 115.063C234.354 112.779 235.043 110.189 235.04 107.554C235.037 104.919 234.34 102.331 233.02 100.05C231.701 97.7692 229.804 95.8755 227.522 94.5591C225.239 93.2427 222.65 92.5498 220.015 92.5501V92.5444Z" fill="#E0E0E0"/>
<path d="M266.392 91.3684C266.393 96.8205 264.777 102.151 261.749 106.684C258.721 111.218 254.416 114.752 249.379 116.839C244.343 118.926 238.8 119.473 233.453 118.41C228.105 117.347 223.193 114.722 219.337 110.868C215.482 107.013 212.856 102.101 211.792 96.7539C210.728 91.4066 211.273 85.8639 213.359 80.8268C215.446 75.7896 218.979 71.4842 223.512 68.455C228.045 65.4259 233.375 63.8091 238.827 63.8091C246.136 63.8091 253.147 66.7125 258.316 71.8807C263.485 77.0489 266.39 84.0587 266.392 91.3684Z" fill="#F0F0F0"/>
<path d="M265.631 97.696C264.666 101.807 262.769 105.64 260.087 108.902C257.405 112.163 254.01 114.764 250.163 116.505C246.317 118.246 242.121 119.079 237.901 118.942C233.681 118.804 229.549 117.698 225.824 115.71C222.099 113.722 218.881 110.905 216.418 107.475C213.954 104.046 212.312 100.097 211.617 95.9321C210.922 91.7674 211.194 87.4987 212.41 83.4555C213.627 79.4123 215.757 75.7028 218.634 72.6131C220.548 70.557 220.668 70.4718 218.782 72.4598C218.303 74.5233 218.059 76.6346 218.055 78.7532C218.052 84.2698 219.706 89.6601 222.801 94.2265C225.896 98.7929 230.291 102.325 235.416 104.366C240.541 106.406 246.161 106.862 251.548 105.672C256.935 104.483 261.841 101.705 265.631 97.696Z" fill="#EBEBEB"/>
<path d="M47.0019 22.72L42.5999 25.2589C42.6239 25.0705 42.6371 24.8809 42.6397 24.6909V23.4016C42.6397 21.1296 41.0436 20.2208 39.084 21.3511C38.2388 21.8699 37.5161 22.5655 36.9654 23.3902C36.6416 20.5502 34.4037 19.4767 31.6887 21.0444C28.7521 22.7484 26.3722 26.8664 26.3722 30.2573V32.1601C26.3515 32.9212 26.505 33.6769 26.8209 34.3697L23.1743 36.4769C22.6013 36.8504 22.1243 37.3535 21.7819 37.9456C21.4395 38.5377 21.2413 39.202 21.2034 39.8849C21.2034 41.1402 22.0838 41.6514 23.1743 41.0209L47.0019 27.264C47.5757 26.8908 48.0535 26.3879 48.3969 25.7958C48.7403 25.2038 48.9395 24.5393 48.9786 23.856C48.9786 22.6007 48.0925 22.0952 47.0019 22.72Z" fill="#F0F0F0"/>
<path d="M73.8401 31.9612L70.523 33.8753C70.5408 33.7302 70.5502 33.5842 70.5514 33.438V32.478C70.5514 30.774 69.3472 30.0697 67.8648 30.9274C67.2293 31.3211 66.6851 31.8459 66.2687 32.4667C66.0244 30.314 64.3375 29.5131 62.2927 30.6945C61.1248 31.4571 60.1528 32.4837 59.4552 33.6915C58.7575 34.8992 58.3539 36.2542 58.2769 37.6468V39.0839C58.2636 39.6591 58.3801 40.2298 58.6177 40.7538L55.8629 42.3442C55.4298 42.627 55.0694 43.0079 54.8109 43.4559C54.5524 43.9039 54.403 44.4064 54.3748 44.9229C54.3748 45.8715 55.0393 46.2577 55.8629 45.7806L73.8401 35.3976C74.2738 35.1154 74.6347 34.7347 74.8933 34.2866C75.1519 33.8385 75.301 33.3355 75.3283 32.8188C75.3112 31.8703 74.6467 31.484 73.8401 31.9612Z" fill="#F0F0F0"/>
<path d="M62.014 171.917C62.0578 173.698 61.7229 175.467 61.0314 177.109C60.5125 178.328 59.6298 179.358 58.5038 180.057L58.4186 180.108L52.0911 183.754L49.5237 178.642L49.3476 178.302C47.9037 177.175 46.6146 175.863 45.5136 174.399C45.2296 174.042 44.9456 173.672 44.7071 173.292C43.1299 171.002 41.901 168.49 41.0605 165.84C40.407 163.835 40.0361 161.75 39.9586 159.643L39.9131 159.558L39.2656 158.274L37.8854 155.633L37.3174 154.497L42.9576 151.231L43.3382 151.009L43.4972 150.918C44.3629 150.428 45.3422 150.173 46.3372 150.18C47.9685 150.235 49.5568 150.717 50.9437 151.577C57.0667 155.138 62.014 164.232 62.014 171.917Z" fill="#263238"/>
<path d="M33.512 162.869C33.512 169.497 37.1926 177.171 42.1172 181.414C42.869 182.064 43.6789 182.644 44.5368 183.146C50.6428 186.679 55.5958 183.3 55.5901 175.609C55.5901 169.804 52.7501 163.187 48.7741 158.785C48.7741 158.785 48.7741 158.785 48.74 158.751C47.5304 157.397 46.1206 156.236 44.5596 155.309C38.4308 151.81 33.512 155.184 33.512 162.869Z" fill="#37474F"/>
<path d="M44.5311 159.972C40.6517 157.729 37.4993 160.063 37.4993 165.192C37.4993 170.321 40.6517 176.291 44.5311 178.534C48.4105 180.778 51.5686 178.438 51.5686 173.314C51.5686 168.191 48.4162 162.216 44.5311 159.972Z" fill="#455A64"/>
<path d="M33.512 162.869C33.512 169.497 37.1926 177.171 42.1172 181.414C38.6971 177.54 36.2891 172.881 35.108 167.85C34.1708 163.42 34.54 157.058 38.3286 155.451C42.1172 153.843 47.1553 157.228 48.74 158.773C47.5304 157.419 46.1206 156.259 44.5596 155.331C38.4308 151.81 33.512 155.184 33.512 162.869Z" fill="#455A64"/>
<path d="M44.5311 164.437C42.5147 163.272 40.8845 164.482 40.8845 167.146C40.8845 169.81 42.5147 172.905 44.5311 174.07C46.5475 175.234 48.1833 174.019 48.1833 171.361C48.1833 168.702 46.5759 165.601 44.5311 164.437Z" fill="#E0E0E0"/>
<path d="M43.3669 164.385C43.117 164.239 42.8472 164.13 42.5661 164.062C41.555 164.334 40.8621 165.442 40.8621 167.146C40.927 169.166 41.6557 171.108 42.9353 172.672C43.0728 172.78 43.217 172.878 43.3669 172.968C45.1618 174.002 46.6102 172.928 46.6102 170.559C46.6102 168.191 45.1618 165.425 43.3669 164.385Z" fill="#F5F5F5"/>
<path d="M36.8232 147.26V149.941L115.724 195.495V192.814L36.8232 147.26Z" fill="#455A64"/>
<path d="M61.1737 164.005L56.8625 161.511V176.16C56.8625 176.949 57.4305 177.268 58.0951 176.87L61.5031 174.91L61.1793 174.717L61.1737 164.005Z" fill="#17C5B5"/>
<path opacity="0.7" d="M61.1737 164.005L56.8625 161.511V176.16C56.8625 176.949 57.4305 177.268 58.0951 176.87L61.5031 174.91L61.1793 174.717L61.1737 164.005Z" fill="white"/>
<path d="M61.1736 164.005V172.042L80.9116 183.436V175.399L61.1736 164.005Z" fill="#37474F"/>
<path d="M80.9117 183.436L61.1737 172.042L60.0264 172.724L80.9117 184.765V183.436Z" fill="#263238"/>
<path d="M60.032 174.064V172.729L80.9117 184.765V186.117L60.032 174.064Z" fill="#455A64"/>
<path d="M80.9116 172.718V188.798L97.1564 198.176V182.095L80.9116 172.718Z" fill="#37474F"/>
<path d="M97.1565 182.096V198.176L113.401 207.553V191.479L97.1565 182.096Z" fill="#37474F"/>
<path d="M113.401 207.553L118.042 204.872V191.473L115.724 192.814L113.401 191.479V207.553Z" fill="#263238"/>
<path d="M96.5713 197.835V181.76L97.73 182.43V198.505L96.5713 197.835Z" fill="#263238"/>
<path d="M104.694 191.808V189.127L105.852 189.798L105.858 192.479L104.694 191.808Z" fill="#E0E0E0"/>
<path d="M88.449 182.436V179.755L89.6077 180.42L89.6134 183.107L88.449 182.436Z" fill="#E0E0E0"/>
<path opacity="0.2" d="M79.7243 172.031V182.755L78.594 183.431V184.777L80.9114 186.117V172.718L79.7243 172.031Z" fill="black"/>
<path d="M32.1829 144.585L115.724 192.814L115.73 187.474L32.1829 139.246V144.585Z" fill="#17C5B5"/>
<g opacity="0.6">
<path d="M32.1829 144.585L115.724 192.814L115.73 187.474L32.1829 139.246V144.585Z" fill="white"/>
</g>
<path d="M115.724 192.814L118.042 191.473V186.117L115.724 187.458V192.814Z" fill="#17C5B5"/>
<g opacity="0.5">
<path d="M115.724 192.814L118.042 191.473V186.117L115.724 187.458V192.814Z" fill="white"/>
</g>
<g opacity="0.1">
<path d="M115.724 192.814L118.042 191.473V186.117L115.724 187.458V192.814Z" fill="black"/>
</g>
<path d="M90.1984 105.728L32.1829 139.246L115.724 187.458L173.74 153.963L90.1984 105.728Z" fill="#17C5B5"/>
<g opacity="0.8">
<path d="M90.1984 105.728L32.1829 139.246L115.724 187.458L173.74 153.963L90.1984 105.728Z" fill="white"/>
</g>
<path d="M39.1409 73.5733L113.401 116.446L166.776 85.6319L92.5158 42.7593L39.1409 73.5733Z" fill="#455A64"/>
<path d="M113.401 183.436V116.446L39.1409 73.5732V140.563L113.401 183.436Z" fill="#37474F"/>
<path d="M113.401 183.436L166.776 152.622V85.6318L113.401 116.446V183.436Z" fill="#263238"/>
<path d="M91.9651 162.869C91.5454 162.575 91.2018 162.185 90.9627 161.731C90.7237 161.278 90.5961 160.774 90.5906 160.262V156.286L93.3851 157.927L93.5669 157.893V158.16V161.727C93.5869 161.961 93.5449 162.196 93.4452 162.408C93.3455 162.621 93.1916 162.803 92.9989 162.937C92.8649 163.011 92.7145 163.05 92.5615 163.051C92.3507 163.041 92.1457 162.978 91.9651 162.869ZM92.2775 158.575L92.0731 159.972H91.0393V160.262C91.0471 160.694 91.1535 161.119 91.3504 161.503C91.5473 161.888 91.8294 162.223 92.1753 162.483C92.2617 162.544 92.3626 162.582 92.4681 162.593C92.5736 162.604 92.6802 162.588 92.7774 162.545C92.8966 162.448 92.9889 162.321 93.0456 162.178C93.1022 162.035 93.1214 161.88 93.1011 161.727V158.421L92.2775 158.575ZM91.8799 158.188L92.7035 158.041L91.0393 157.058V159.523H91.6868L91.8799 158.188Z" fill="#E0E0E0"/>
<path d="M92.0783 165.896C92.1079 165.896 92.1371 165.89 92.1644 165.879C92.1916 165.867 92.2163 165.85 92.237 165.829C92.2576 165.808 92.2738 165.783 92.2846 165.755C92.2954 165.728 92.3006 165.699 92.2998 165.669V162.676C92.2998 162.617 92.2765 162.561 92.2349 162.519C92.1934 162.477 92.137 162.454 92.0783 162.454C92.0195 162.454 91.9632 162.477 91.9216 162.519C91.8801 162.561 91.8568 162.617 91.8568 162.676V165.669C91.856 165.699 91.8612 165.728 91.872 165.755C91.8828 165.783 91.899 165.808 91.9196 165.829C91.9402 165.85 91.9649 165.867 91.9922 165.879C92.0194 165.89 92.0487 165.896 92.0783 165.896Z" fill="#E0E0E0"/>
<path d="M93.3792 166.646C93.4187 166.647 93.4576 166.636 93.4917 166.616C93.5258 166.596 93.5537 166.567 93.5724 166.532C93.5876 166.507 93.5977 166.479 93.6019 166.45C93.6062 166.421 93.6046 166.391 93.5972 166.362C93.5898 166.334 93.5767 166.307 93.5588 166.283C93.5409 166.26 93.5185 166.24 93.4929 166.226L90.88 164.72C90.8555 164.704 90.8278 164.694 90.7988 164.689C90.7699 164.685 90.7403 164.686 90.7119 164.693C90.6836 164.701 90.6571 164.714 90.6342 164.733C90.6113 164.751 90.5925 164.774 90.579 164.8C90.5638 164.825 90.5537 164.853 90.5494 164.882C90.5452 164.912 90.5468 164.941 90.5542 164.97C90.5616 164.999 90.5747 165.025 90.5926 165.049C90.6105 165.072 90.6329 165.092 90.6585 165.107L93.2656 166.612C93.3003 166.632 93.3392 166.644 93.3792 166.646Z" fill="#E0E0E0"/>
<path d="M101.189 171.275C101.275 171.277 101.359 171.255 101.433 171.212C101.524 171.156 101.597 171.076 101.644 170.981C101.691 170.885 101.711 170.779 101.7 170.673V170.059C101.692 170.006 101.665 169.957 101.623 169.922C101.582 169.887 101.53 169.868 101.476 169.868C101.422 169.868 101.37 169.887 101.329 169.922C101.287 169.957 101.26 170.006 101.252 170.059V170.673C101.252 170.764 101.252 170.815 101.206 170.826C101.156 170.832 101.104 170.818 101.064 170.786C100.925 170.657 100.816 170.499 100.743 170.324C100.671 170.148 100.637 169.959 100.644 169.77V165.794C100.645 165.764 100.64 165.735 100.629 165.707C100.618 165.68 100.602 165.654 100.581 165.633C100.56 165.612 100.536 165.595 100.509 165.584C100.481 165.572 100.452 165.566 100.422 165.566C100.362 165.566 100.304 165.59 100.262 165.633C100.219 165.676 100.195 165.733 100.195 165.794V169.77C100.184 170.037 100.235 170.303 100.346 170.547C100.456 170.791 100.623 171.005 100.831 171.173C100.94 171.237 101.063 171.272 101.189 171.275Z" fill="#E0E0E0"/>
<path d="M97.588 164.351V164.22C97.5196 163.837 97.5712 163.441 97.7357 163.087C97.9002 162.734 98.1697 162.44 98.5073 162.245C98.845 162.05 99.2346 161.964 99.6229 161.998C100.011 162.032 100.38 162.186 100.678 162.437C101.514 162.981 102.209 163.715 102.707 164.578C103.206 165.442 103.493 166.411 103.546 167.407V167.793L97.588 164.351ZM98.724 162.647C98.4944 162.812 98.3104 163.032 98.1892 163.287C98.068 163.543 98.0135 163.825 98.031 164.107L103.075 167.021C102.964 166.176 102.672 165.366 102.219 164.644C101.766 163.923 101.163 163.307 100.451 162.84C100.109 162.627 99.7171 162.508 99.3147 162.494C99.1114 162.49 98.9103 162.537 98.7297 162.63L98.724 162.647Z" fill="#E0E0E0"/>
<path d="M110.192 176.308C110.222 176.308 110.251 176.302 110.278 176.29C110.305 176.279 110.33 176.262 110.351 176.241C110.371 176.22 110.388 176.195 110.398 176.167C110.409 176.14 110.414 176.11 110.414 176.081V168.452C110.414 168.423 110.409 168.393 110.398 168.366C110.388 168.338 110.371 168.313 110.351 168.292C110.33 168.271 110.305 168.254 110.278 168.242C110.251 168.231 110.222 168.225 110.192 168.225C110.132 168.225 110.074 168.249 110.031 168.292C109.989 168.334 109.965 168.392 109.965 168.452V176.081C109.965 176.141 109.989 176.199 110.031 176.241C110.074 176.284 110.132 176.308 110.192 176.308Z" fill="#E0E0E0"/>
<path d="M110.857 170.19C110.887 170.196 110.917 170.196 110.947 170.19C110.974 170.179 110.999 170.162 111.019 170.14C111.04 170.119 111.056 170.094 111.066 170.066C111.077 170.039 111.082 170.01 111.081 169.98C111.08 169.951 111.073 169.922 111.061 169.895L110.266 168.049L109.374 169.083C109.336 169.128 109.317 169.186 109.322 169.246C109.326 169.305 109.354 169.359 109.4 169.398C109.445 169.436 109.503 169.455 109.563 169.45C109.622 169.446 109.676 169.417 109.715 169.372L110.135 168.884L110.652 170.071C110.671 170.108 110.701 170.139 110.737 170.16C110.773 170.181 110.815 170.192 110.857 170.19Z" fill="#E0E0E0"/>
<path d="M108.13 175.126C108.189 175.125 108.246 175.1 108.287 175.058C108.329 175.015 108.352 174.958 108.352 174.899V167.271C108.357 167.238 108.355 167.205 108.346 167.174C108.337 167.142 108.322 167.113 108.3 167.088C108.279 167.063 108.252 167.042 108.223 167.029C108.193 167.015 108.16 167.008 108.127 167.008C108.094 167.008 108.062 167.015 108.032 167.029C108.002 167.042 107.976 167.063 107.954 167.088C107.933 167.113 107.918 167.142 107.909 167.174C107.9 167.205 107.898 167.238 107.903 167.271V174.899C107.903 174.959 107.927 175.017 107.97 175.06C108.012 175.102 108.07 175.126 108.13 175.126Z" fill="#E0E0E0"/>
<path d="M108.783 169.009C108.813 169.014 108.844 169.014 108.874 169.009C108.901 168.997 108.926 168.98 108.946 168.959C108.966 168.938 108.982 168.913 108.993 168.885C109.004 168.858 109.009 168.828 109.008 168.799C109.007 168.769 109 168.74 108.988 168.714L108.193 166.868L107.301 167.896C107.27 167.942 107.257 167.998 107.264 168.052C107.272 168.107 107.299 168.158 107.341 168.194C107.383 168.23 107.436 168.25 107.492 168.25C107.547 168.249 107.6 168.228 107.642 168.191L108.062 167.703L108.579 168.89C108.598 168.927 108.628 168.958 108.664 168.979C108.7 169 108.741 169.011 108.783 169.009Z" fill="#E0E0E0"/>
<path d="M63.0877 135.889V148.175C63.0877 148.646 62.7525 148.839 62.3436 148.601L43.1679 137.525C42.9508 137.385 42.7701 137.196 42.6407 136.973C42.5114 136.749 42.437 136.499 42.4238 136.241V123.949C42.4238 123.472 42.7589 123.285 43.1679 123.518L62.3493 134.616C62.5628 134.756 62.7408 134.944 62.869 135.165C62.9972 135.386 63.072 135.634 63.0877 135.889Z" fill="#FAFAFA"/>
<path d="M43.6108 125.278L44.23 125.636V136.803L43.6108 136.445V125.278Z" fill="#455A64"/>
<path d="M46.1328 126.732L47.2007 127.363V138.53L46.1328 137.905V126.732Z" fill="#455A64"/>
<path d="M48.6548 128.187L49.2739 128.544V139.717L48.6548 139.359V128.187Z" fill="#455A64"/>
<path d="M50.5576 129.266L51.7959 130.004V141.171L50.5576 140.438V129.266Z" fill="#455A64"/>
<path d="M53.6987 131.101L54.3178 131.458V142.625L53.6987 142.267V131.101Z" fill="#455A64"/>
<path d="M55.5105 132.123L56.8396 132.912V144.079L55.5105 143.295V132.123Z" fill="#455A64"/>
<path d="M58.7424 134.009L59.3616 134.367L59.3559 145.539L58.7424 145.176V134.009Z" fill="#455A64"/>
<path d="M60.1797 134.827L60.4864 135.008V146.175L60.1797 145.999V134.827Z" fill="#455A64"/>
<path d="M57.5894 133.401L57.9018 133.577V144.75L57.5894 144.568V133.401Z" fill="#455A64"/>
<path d="M52.5117 130.424L52.8241 130.606V141.773L52.5117 141.597V130.424Z" fill="#455A64"/>
<path d="M49.7285 128.829L50.0409 129.01V140.177L49.7285 140.001V128.829Z" fill="#455A64"/>
<path d="M47.7347 127.727L48.0414 127.908V139.075L47.729 138.893L47.7347 127.727Z" fill="#455A64"/>
<path d="M45.0254 126.08L45.3321 126.261V137.428L45.0254 137.252V126.08Z" fill="#455A64"/>
<path d="M61.2645 135.462L61.8779 135.82V146.993L61.2588 146.635L61.2645 135.462Z" fill="#455A64"/>
<path d="M80.9112 164.68V97.6905L71.6301 92.3286V159.319L80.9112 164.68Z" fill="#F80606"/>
<g opacity="0.3">
<path d="M80.9112 164.68V97.6905L71.6301 92.3286V159.319L80.9112 164.68Z" fill="black"/>
</g>
<path d="M135.457 170.707V103.717L144.738 98.355V165.345L135.457 170.707Z" fill="#F80606"/>
<g opacity="0.45">
<path d="M135.457 170.707V103.717L144.738 98.355V165.345L135.457 170.707Z" fill="black"/>
</g>
<path d="M71.6301 92.3287L125.005 61.5146L134.286 66.8709L80.9112 97.6906L71.6301 92.3287Z" fill="#F80606"/>
<g opacity="0.15">
<path d="M71.6301 92.3287L125.005 61.5146L134.286 66.8709L80.9112 97.6906L71.6301 92.3287Z" fill="black"/>
</g>
<g opacity="0.15">
<path d="M91.9875 80.5766L101.314 85.9101L102.961 84.9615L93.6802 79.5996L91.9875 80.5766Z" fill="black"/>
</g>
<path d="M144.738 98.3552L70.4659 55.4883L61.1848 60.8445L135.457 103.717L144.738 98.3552Z" fill="#F80606"/>
<g opacity="0.15">
<path d="M144.738 98.3552L70.4659 55.4883L61.1848 60.8445L135.457 103.717L144.738 98.3552Z" fill="black"/>
</g>
<path opacity="0.2" d="M107.034 78.9521C107.034 78.9521 120.211 90.4598 141.733 87.9663C141.733 87.9663 132.951 94.2143 121.768 92.8795C121.768 92.8795 123.176 99.0707 131.884 102.422C131.884 102.422 107.17 102.058 102.842 81.7637L107.034 78.9521Z" fill="black"/>
<path d="M106.483 77.7651C106.483 77.7651 119.66 88.7048 141.182 86.2113C141.182 86.2113 132.048 92.1923 120.864 90.8405C120.864 90.8405 122.466 94.9187 131.884 99.8887C131.884 99.8887 108.363 100.099 102.285 80.5767L106.483 77.7651Z" fill="#F80606"/>
<path opacity="0.25" d="M106.483 77.7651C106.483 77.7651 119.66 88.7048 141.182 86.2113C141.182 86.2113 132.048 92.1923 120.864 90.8405C120.864 90.8405 122.466 94.9187 131.884 99.8887C131.884 99.8887 108.363 100.099 102.285 80.5767L106.483 77.7651Z" fill="white"/>
<path opacity="0.1" d="M105.557 83.2803C110.192 84.5129 114.787 82.5135 114.787 82.5135L113.923 82.133L113.793 82.0705L113.026 81.7127L112.856 81.6275L112.157 81.281L111.981 81.1958L111.345 80.8607L111.169 80.7641L110.601 80.446C110.548 80.4124 110.493 80.382 110.436 80.3551L109.902 80.0427L109.754 79.9575L109.266 79.6622L109.13 79.577L108.692 79.31L108.567 79.2248L108.187 78.9749L108.073 78.9011L107.744 78.6795L107.641 78.6114L107.369 78.4183L107.278 78.3558L107.056 78.1911L106.983 78.1343L106.812 78.015L106.738 77.9525L106.642 77.8787L106.574 77.8219H106.534L106.5 77.7935L105.125 78.7136L102.285 80.5994C108.363 100.127 131.878 99.9114 131.884 99.9114C119.78 99.3263 107.068 90.1418 105.557 83.2803Z" fill="black"/>
<path d="M135.701 63.4514C135.701 63.4514 133.082 60.3955 125.057 61.7758C120.211 62.6107 111.993 68.2566 107.926 77.6798C107.409 78.8726 106.256 79.2702 105.654 80.0711C105.511 80.2509 105.355 80.4199 105.188 80.5766H102.649C102.649 71.7953 107.573 62.9288 112.237 57.7998C116.9 52.6707 124.568 50.1602 130.044 49.95C131.985 49.8626 133.919 50.2343 135.689 51.0349C137.166 55.204 137.78 59.322 135.701 63.4514Z" fill="#F80606"/>
<path opacity="0.5" d="M135.701 63.4514C135.701 63.4514 133.082 60.3955 125.057 61.7758C120.211 62.6107 111.993 68.2566 107.926 77.6798C107.409 78.8726 106.256 79.2702 105.654 80.0711C105.511 80.2509 105.355 80.4199 105.188 80.5766H102.649C102.649 71.7953 107.573 62.9288 112.237 57.7998C116.9 52.6707 124.568 50.1602 130.044 49.95C131.985 49.8626 133.919 50.2343 135.689 51.0349C137.166 55.204 137.78 59.322 135.701 63.4514Z" fill="white"/>
<path opacity="0.3" d="M108.488 76.4759C108.488 76.4759 103.916 74.9309 105.802 67.6094C103.83 71.6544 102.756 76.078 102.655 80.5768H105.194C105.361 80.4201 105.517 80.2511 105.66 80.0713C106.279 79.2704 107.432 78.8728 107.932 77.68C108.096 77.2483 108.289 76.8678 108.488 76.4759Z" fill="#F80606"/>
<path opacity="0.1" d="M108.488 76.4759C108.488 76.4759 103.916 74.9309 105.802 67.6094C103.83 71.6544 102.756 76.078 102.655 80.5768H105.194C105.361 80.4201 105.517 80.2511 105.66 80.0713C106.279 79.2704 107.432 78.8728 107.932 77.68C108.096 77.2483 108.289 76.8678 108.488 76.4759Z" fill="black"/>
<path opacity="0.3" d="M135.701 63.4514C135.701 63.4514 136.104 53.7954 130.021 49.95C131.962 49.8626 133.896 50.2343 135.667 51.0349C137.166 55.204 137.78 59.322 135.701 63.4514Z" fill="#F80606"/>
<path opacity="0.1" d="M135.701 63.4514C135.701 63.4514 136.104 53.7954 130.021 49.95C131.962 49.8626 133.896 50.2343 135.667 51.0349C137.166 55.204 137.78 59.322 135.701 63.4514Z" fill="black"/>
<path d="M131.015 69.0803C132.94 67.5367 134.534 65.6203 135.701 63.4458C137.785 59.3164 137.166 55.1984 135.701 51.0293C140.41 53.1139 143.221 59.2312 144.295 64.1615C144.863 66.9219 144.931 69.3303 144.465 70.4379C143.147 73.5448 135.411 86.1033 102.308 80.571L102.348 77.0948C110.607 76.595 125.085 74.0731 131.015 69.0803Z" fill="#F80606"/>
<path opacity="0.4" d="M131.015 69.0803C132.94 67.5367 134.534 65.6203 135.701 63.4458C137.785 59.3164 137.166 55.1984 135.701 51.0293C140.41 53.1139 143.221 59.2312 144.295 64.1615C144.863 66.9219 144.931 69.3303 144.465 70.4379C143.147 73.5448 135.411 86.1033 102.308 80.571L102.348 77.0948C110.607 76.595 125.085 74.0731 131.015 69.0803Z" fill="white"/>
<path opacity="0.2" d="M98.9057 78.9521C98.9057 78.9521 85.7281 90.4598 64.2065 87.9663C64.2065 87.9663 72.9878 94.2143 84.1717 92.8795C84.1717 92.8795 82.7631 99.0707 74.0557 102.422C74.0557 102.422 98.7693 102.058 103.097 81.7637L98.9057 78.9521Z" fill="black"/>
<path d="M99.4568 77.7651C99.4568 77.7651 86.2792 88.7048 64.752 86.2113C64.752 86.2113 73.8854 92.1923 85.0693 90.8405C85.0693 90.8405 83.4676 94.9187 74.0501 99.8887C74.0501 99.8887 97.571 100.099 103.649 80.5767L99.4568 77.7651Z" fill="#F80606"/>
<path opacity="0.25" d="M99.4568 77.7651C99.4568 77.7651 86.2792 88.7048 64.752 86.2113C64.752 86.2113 73.8854 92.1923 85.0693 90.8405C85.0693 90.8405 83.4676 94.9187 74.0501 99.8887C74.0501 99.8887 97.571 100.099 103.649 80.5767L99.4568 77.7651Z" fill="white"/>
<path opacity="0.1" d="M100.388 83.2803C95.7478 84.5129 91.1527 82.5135 91.1527 82.5135L92.0161 82.133L92.1467 82.0705L92.9135 81.7127L93.0839 81.6275L93.7825 81.281L93.9586 81.1958L94.6005 80.8607L94.7709 80.7641L95.3389 80.446L95.5036 80.3551L96.0375 80.0427L96.1852 79.9575L96.6737 79.6622L96.81 79.577L97.2474 79.31L97.3723 79.2248L97.7529 78.9749L97.8665 78.9011L98.1959 78.6795L98.2981 78.6114L98.5765 78.4183L98.6617 78.3558L98.8832 78.1911L98.957 78.1343L99.1274 78.015L99.2013 77.9525L99.2978 77.8787L99.366 77.8219H99.4057L99.4398 77.7935L100.814 78.7136L103.654 80.5994C97.5768 100.127 74.0616 99.9114 74.0559 99.9114C86.16 99.3263 98.8718 90.1418 100.388 83.2803Z" fill="black"/>
<path d="M70.2444 63.4514C70.2444 63.4514 72.8572 60.3955 80.8831 61.7758C85.7281 62.6107 93.9471 68.2566 98.0196 77.6798C98.5308 78.8726 99.6839 79.2702 100.292 80.0711C100.434 80.2509 100.59 80.4199 100.757 80.5766H103.296C103.296 71.7953 98.3718 62.9288 93.7085 57.7998C89.0452 52.6707 81.3772 50.1602 75.9017 49.95C73.9606 49.8626 72.0262 50.2343 70.2558 51.0349C68.7733 55.204 68.1599 59.322 70.2444 63.4514Z" fill="#F80606"/>
<path opacity="0.5" d="M70.2444 63.4514C70.2444 63.4514 72.8572 60.3955 80.8831 61.7758C85.7281 62.6107 93.9471 68.2566 98.0196 77.6798C98.5308 78.8726 99.6839 79.2702 100.292 80.0711C100.434 80.2509 100.59 80.4199 100.757 80.5766H103.296C103.296 71.7953 98.3718 62.9288 93.7085 57.7998C89.0452 52.6707 81.3772 50.1602 75.9017 49.95C73.9606 49.8626 72.0262 50.2343 70.2558 51.0349C68.7733 55.204 68.1599 59.322 70.2444 63.4514Z" fill="white"/>
<path opacity="0.3" d="M97.4631 76.4759C97.4631 76.4759 102.007 74.9309 100.15 67.6094C102.122 71.6544 103.195 76.078 103.296 80.5768H100.758C100.59 80.4201 100.434 80.2511 100.292 80.0713C99.6727 79.2704 98.5196 78.8728 98.0198 77.68C97.8437 77.2483 97.6506 76.8678 97.4631 76.4759Z" fill="#F80606"/>
<path opacity="0.1" d="M97.4631 76.4759C97.4631 76.4759 102.007 74.9309 100.15 67.6094C102.122 71.6544 103.195 76.078 103.296 80.5768H100.758C100.59 80.4201 100.434 80.2511 100.292 80.0713C99.6727 79.2704 98.5196 78.8728 98.0198 77.68C97.8437 77.2483 97.6506 76.8678 97.4631 76.4759Z" fill="black"/>
<path opacity="0.3" d="M70.2447 63.4514C70.2447 63.4514 69.8357 53.7954 75.9247 49.95C73.9836 49.8626 72.0492 50.2343 70.2788 51.0349C68.7736 55.204 68.1601 59.322 70.2447 63.4514Z" fill="#F80606"/>
<path opacity="0.1" d="M70.2447 63.4514C70.2447 63.4514 69.8357 53.7954 75.9247 49.95C73.9836 49.8626 72.0492 50.2343 70.2788 51.0349C68.7736 55.204 68.1601 59.322 70.2447 63.4514Z" fill="black"/>
<path d="M74.9248 69.0803C72.9994 67.5367 71.4055 65.6203 70.2388 63.4458C68.1542 59.3164 68.7733 55.1984 70.2388 51.0293C65.5244 53.1139 62.7128 59.2312 61.6449 64.1615C61.0769 66.9219 61.0031 69.3303 61.4688 70.4379C62.7866 73.5448 70.5228 86.1033 103.626 80.571L103.592 77.0948C95.333 76.595 80.8547 74.0731 74.9248 69.0803Z" fill="#F80606"/>
<path opacity="0.4" d="M74.9248 69.0803C72.9994 67.5367 71.4055 65.6203 70.2388 63.4458C68.1542 59.3164 68.7733 55.1984 70.2388 51.0293C65.5244 53.1139 62.7128 59.2312 61.6449 64.1615C61.0769 66.9219 61.0031 69.3303 61.4688 70.4379C62.7866 73.5448 70.5228 86.1033 103.626 80.571L103.592 77.0948C95.333 76.595 80.8547 74.0731 74.9248 69.0803Z" fill="white"/>
<path d="M107.5 78.2821C107.464 77.9471 107.34 77.6275 107.14 77.3561C106.941 77.0846 106.673 76.871 106.364 76.7372C105.271 76.3504 104.113 76.1825 102.956 76.243C101.759 76.1847 100.563 76.3782 99.4454 76.811C99.161 76.951 98.9169 77.1611 98.736 77.4214C98.5552 77.6817 98.4436 77.9838 98.4116 78.2992C98.2923 79.3443 98.2185 81.1051 98.9058 82.0991C100.034 83.0684 101.48 83.5881 102.967 83.5588C104.448 83.5917 105.888 83.0712 107.005 82.0991C107.687 81.0823 107.619 79.3272 107.5 78.2821Z" fill="#F80606"/>
<path opacity="0.5" d="M107.5 78.2821C107.464 77.9471 107.34 77.6275 107.14 77.3561C106.941 77.0846 106.673 76.871 106.364 76.7372C105.271 76.3504 104.113 76.1825 102.956 76.243C101.759 76.1847 100.563 76.3782 99.4454 76.811C99.161 76.951 98.9169 77.1611 98.736 77.4214C98.5552 77.6817 98.4436 77.9838 98.4116 78.2992C98.2923 79.3443 98.2185 81.1051 98.9058 82.0991C100.034 83.0684 101.48 83.5881 102.967 83.5588C104.448 83.5917 105.888 83.0712 107.005 82.0991C107.687 81.0823 107.619 79.3272 107.5 78.2821Z" fill="white"/>
<path opacity="0.3" d="M107.568 79.9232C107.568 80.3322 107.113 80.9854 106.227 81.6272C105.481 82.0589 104.646 82.315 103.786 82.376C102.926 82.437 102.063 82.3014 101.263 81.9794C100.531 81.7654 99.8729 81.3527 99.3615 80.7872C98.8501 80.2217 98.5056 79.5255 98.3661 78.7759C98.2866 79.821 98.315 81.2353 98.9057 82.093C100.034 83.0623 101.48 83.582 102.967 83.5528C104.448 83.5856 105.888 83.0651 107.005 82.093C107.385 81.4335 107.579 80.6839 107.568 79.9232Z" fill="#F80606"/>
<path opacity="0.1" d="M107.568 79.9232C107.568 80.3322 107.113 80.9854 106.227 81.6272C105.481 82.0589 104.646 82.315 103.786 82.376C102.926 82.437 102.063 82.3014 101.263 81.9794C100.531 81.7654 99.8729 81.3527 99.3615 80.7872C98.8501 80.2217 98.5056 79.5255 98.3661 78.7759C98.2866 79.821 98.315 81.2353 98.9057 82.093C100.034 83.0623 101.48 83.582 102.967 83.5528C104.448 83.5856 105.888 83.0651 107.005 82.093C107.385 81.4335 107.579 80.6839 107.568 79.9232Z" fill="black"/>
<path d="M225.042 142.211L229.313 139.728C229.456 139.624 229.624 139.561 229.8 139.544C229.975 139.527 230.153 139.557 230.313 139.632C230.563 139.779 231.068 140.086 231.318 140.2C231.464 140.301 231.579 140.439 231.653 140.6C231.727 140.76 231.757 140.938 231.738 141.114V151.372C231.712 151.86 231.571 152.334 231.326 152.757C231.081 153.179 230.74 153.538 230.33 153.803L226.064 156.314C225.922 156.417 225.755 156.481 225.581 156.499C225.406 156.517 225.23 156.488 225.07 156.416C224.814 156.269 224.309 155.956 224.053 155.814C223.909 155.712 223.795 155.574 223.722 155.413C223.649 155.252 223.62 155.075 223.639 154.9V144.642C223.664 144.154 223.805 143.68 224.049 143.258C224.293 142.835 224.633 142.477 225.042 142.211Z" fill="#FAFAFA"/>
<path d="M223.633 144.641V154.9C223.614 155.075 223.643 155.253 223.716 155.413C223.789 155.574 223.903 155.713 224.048 155.814C224.298 155.95 224.678 156.195 225.036 156.382C224.904 156.277 224.799 156.14 224.733 155.984C224.666 155.829 224.64 155.659 224.656 155.49V145.244C224.671 144.756 224.812 144.281 225.065 143.863L224.048 143.261C223.793 143.678 223.651 144.153 223.633 144.641Z" fill="#E0E0E0"/>
<path d="M230.33 153.832L226.064 156.314C225.286 156.763 224.661 156.399 224.661 155.507V145.244C224.688 144.757 224.828 144.283 225.072 143.86C225.316 143.438 225.656 143.079 226.064 142.813L230.336 140.33C231.114 139.882 231.744 140.245 231.744 141.143V151.401C231.717 151.889 231.575 152.364 231.329 152.786C231.083 153.209 230.741 153.567 230.33 153.832Z" fill="#F0F0F0"/>
<path d="M224.792 162.358C224.729 162.356 224.668 162.339 224.615 162.307C224.561 162.275 224.516 162.23 224.485 162.176C224.462 162.136 224.447 162.091 224.44 162.045C224.434 161.999 224.438 161.952 224.45 161.907C224.462 161.862 224.483 161.82 224.511 161.783C224.54 161.747 224.575 161.716 224.616 161.693L227.592 159.989C227.646 159.958 227.69 159.913 227.721 159.859C227.752 159.805 227.768 159.744 227.768 159.682V148.43C227.762 148.38 227.766 148.329 227.781 148.28C227.796 148.232 227.821 148.187 227.855 148.149C227.888 148.11 227.929 148.08 227.976 148.059C228.022 148.038 228.072 148.027 228.123 148.027C228.174 148.027 228.224 148.038 228.27 148.059C228.317 148.08 228.358 148.11 228.392 148.149C228.425 148.187 228.45 148.232 228.465 148.28C228.48 148.329 228.484 148.38 228.478 148.43V159.665C228.478 159.853 228.428 160.037 228.334 160.199C228.241 160.362 228.106 160.497 227.944 160.591L224.968 162.295C224.916 162.332 224.855 162.354 224.792 162.358Z" fill="#263238"/>
<path d="M136.229 220.521L148.299 214.943C148.299 214.943 147.356 203.583 139.387 206.304C131.418 209.024 136.229 220.521 136.229 220.521Z" fill="#17C5B5"/>
<g opacity="0.5">
<path d="M136.229 220.521L148.299 214.943C148.299 214.943 147.356 203.583 139.387 206.304C131.418 209.024 136.229 220.521 136.229 220.521Z" fill="black"/>
</g>
<path d="M142.869 219.101L140.296 213.943L146.476 210.365C148.447 209.229 151.06 209.365 153.934 211.024C160.04 214.551 164.987 223.639 164.987 231.33C164.987 235.351 163.63 238.197 161.46 239.486L161.369 239.537L155.036 243.195L152.292 237.754C147.072 233.789 143.068 225.962 142.869 219.101Z" fill="#263238"/>
<path d="M136.422 222.276C136.422 228.904 140.103 236.578 145.033 240.821C145.788 241.474 146.6 242.057 147.459 242.565C153.565 246.086 158.518 242.712 158.512 235.022C158.512 229.217 155.672 222.6 151.696 218.198L151.662 218.163C150.454 216.808 149.044 215.647 147.481 214.721C141.37 211.217 136.422 214.591 136.422 222.276Z" fill="#37474F"/>
<path d="M147.476 219.379C143.591 217.107 140.444 219.47 140.444 224.599C140.444 229.728 143.591 235.698 147.476 237.941C151.361 240.185 154.508 237.845 154.508 232.722C154.508 227.598 151.361 221.623 147.476 219.379Z" fill="#455A64"/>
<path d="M147.476 223.843C145.459 222.707 143.829 223.889 143.829 226.553C143.829 229.217 145.459 232.312 147.476 233.477C149.492 234.641 151.128 233.426 151.128 230.767C151.128 228.109 149.492 225.008 147.476 223.843Z" fill="#E0E0E0"/>
<path d="M146.311 223.793C146.061 223.647 145.791 223.538 145.51 223.469C144.499 223.741 143.806 224.849 143.806 226.553C143.87 228.561 144.588 230.494 145.851 232.057C145.991 232.163 146.137 232.262 146.288 232.352C148.083 233.386 149.532 232.313 149.532 229.944C149.532 227.575 148.106 224.826 146.311 223.793Z" fill="#F5F5F5"/>
<path d="M136.422 222.276C136.422 228.905 140.103 236.578 145.033 240.821C141.613 236.948 139.205 232.288 138.024 227.257C137.087 222.827 137.456 216.465 141.245 214.858C145.033 213.25 150.071 216.636 151.656 218.181C150.448 216.825 149.038 215.664 147.476 214.739C141.37 211.217 136.422 214.591 136.422 222.276Z" fill="#455A64"/>
<path d="M179.102 245.257L168.168 238.941L166.731 238.111L163.976 236.51L162.67 235.749C162.716 235.625 162.735 235.494 162.726 235.362C162.771 235.163 162.789 234.959 162.777 234.755C162.777 226.297 156.842 216.011 149.481 211.785C148.79 211.384 148.07 211.034 147.328 210.74C147.004 210.615 146.697 210.507 146.391 210.416C140.574 208.655 136.24 212.188 136.24 219.424V220.521L118.064 210.018V127.164L140.654 140.228L160.375 154.752L169.315 198.232L176.25 208.422L176.62 208.962L180.857 215.176L182.231 232.085L182.572 235.783L182.72 237.305L183.061 240.963L183.22 242.667C183.262 243.167 183.166 243.67 182.942 244.119C182.718 244.569 182.375 244.948 181.949 245.216C181.524 245.483 181.034 245.629 180.531 245.636C180.029 245.643 179.535 245.512 179.102 245.257Z" fill="#17C5B5"/>
<g opacity="0.15">
<path d="M179.102 245.257L168.168 238.941L166.731 238.111L163.976 236.51L162.67 235.749C162.716 235.625 162.735 235.494 162.726 235.362C162.771 235.163 162.789 234.959 162.777 234.755C162.777 226.297 156.842 216.011 149.481 211.785C148.79 211.384 148.07 211.034 147.328 210.74C147.004 210.615 146.697 210.507 146.391 210.416C140.574 208.655 136.24 212.188 136.24 219.424V220.521L118.064 210.018V127.164L140.654 140.228L160.375 154.752L169.315 198.232L176.25 208.422L176.62 208.962L180.857 215.176L182.231 232.085L182.572 235.783L182.72 237.305L183.061 240.963L183.22 242.667C183.262 243.167 183.166 243.67 182.942 244.119C182.718 244.569 182.375 244.948 181.949 245.216C181.524 245.483 181.034 245.629 180.531 245.636C180.029 245.643 179.535 245.512 179.102 245.257Z" fill="black"/>
</g>
<path d="M149.498 156.092V182.896C149.498 183.885 148.811 184.282 147.959 183.788L125.727 170.968C125.277 170.676 124.903 170.281 124.634 169.816C124.366 169.351 124.211 168.829 124.182 168.293V140.08C124.182 139.098 124.869 138.7 125.727 139.189L139.092 146.908C139.944 147.402 141.279 148.271 142.068 148.856L148.061 153.258C148.484 153.605 148.83 154.036 149.078 154.524C149.325 155.012 149.468 155.546 149.498 156.092Z" fill="#455A64"/>
<path d="M156.643 188.781C155.894 188.294 155.271 187.636 154.824 186.862C154.377 186.089 154.118 185.22 154.07 184.328V160.625C154.07 158.984 154.678 158.109 155.428 158.671L156.785 159.688C157.796 160.533 158.512 161.676 158.83 162.954L164.305 191.411C164.527 192.547 163.902 192.973 162.92 192.399L156.643 188.781Z" fill="#455A64"/>
<g opacity="0.15">
<path d="M150.628 151.98L141.648 145.437C140.978 144.948 139.847 144.21 139.132 143.801L123.199 134.616C123.026 134.493 122.822 134.42 122.61 134.404C122.398 134.388 122.185 134.43 121.995 134.526C121.818 134.644 121.675 134.807 121.582 134.999C121.489 135.191 121.449 135.404 121.467 135.616V207.888C121.49 208.388 121.633 208.874 121.883 209.307C122.133 209.74 122.483 210.107 122.904 210.376L133.361 216.408C133.579 216.546 133.83 216.62 134.088 216.624C134.245 216.627 134.4 216.594 134.542 216.528C134.734 216.438 134.898 216.296 135.014 216.119C135.141 215.927 135.226 215.71 135.264 215.483C135.638 213.574 136.797 210.155 140.376 208.718C142.252 208.029 144.301 207.969 146.215 208.547C147.222 208.814 148.2 209.181 149.134 209.644C149.543 209.842 149.918 210.041 150.27 210.212C150.443 210.336 150.645 210.412 150.857 210.432C151.068 210.452 151.282 210.415 151.474 210.325C151.592 210.253 151.692 210.154 151.764 210.036C151.905 209.803 151.974 209.535 151.963 209.263V154.582C151.937 154.078 151.805 153.586 151.575 153.137C151.345 152.689 151.022 152.294 150.628 151.98ZM151.054 209.848C150.914 209.865 150.772 209.835 150.651 209.763L150.554 209.717C149.04 208.829 147.395 208.185 145.681 207.809C143.846 207.378 141.925 207.5 140.16 208.161C136.718 209.547 135.372 212.603 134.849 214.682C134.781 214.926 134.73 215.142 134.69 215.358C134.678 215.484 134.636 215.607 134.568 215.714C134.5 215.822 134.408 215.912 134.298 215.977C134.192 216.013 134.079 216.024 133.968 216.007C133.857 215.99 133.752 215.947 133.662 215.88L123.199 209.854C122.87 209.636 122.596 209.344 122.399 209.002C122.202 208.66 122.087 208.277 122.063 207.883V135.605C122.052 135.499 122.067 135.392 122.106 135.293C122.146 135.194 122.209 135.106 122.29 135.037C122.35 135.005 122.416 134.989 122.484 134.991C122.633 135 122.778 135.047 122.904 135.128L138.836 144.329C139.541 144.733 140.643 145.465 141.296 145.925L150.282 152.474C150.597 152.734 150.856 153.057 151.042 153.421C151.228 153.786 151.336 154.185 151.361 154.593V209.286C151.378 209.389 151.37 209.495 151.336 209.594C151.302 209.693 151.244 209.783 151.168 209.854C151.137 209.869 151.105 209.879 151.071 209.882L151.054 209.848Z" fill="black"/>
</g>
<path d="M240.372 207.815C240.372 207.815 232.13 219.209 214.153 229.967C199.232 238.884 182.97 240.969 182.97 240.969L180.846 215.17L238.248 182.022L240.372 207.815Z" fill="#17C5B5"/>
<g opacity="0.3">
<path d="M240.372 207.815C240.372 207.815 232.13 219.209 214.153 229.967C199.232 238.884 182.97 240.969 182.97 240.969L180.846 215.17L238.248 182.022L240.372 207.815Z" fill="black"/>
</g>
<path d="M238.248 182.011C238.248 182.011 230.006 193.41 212.029 204.163C197.107 213.08 180.846 215.165 180.846 215.165L169.338 198.233L226.751 165.09L238.248 182.011Z" fill="#17C5B5"/>
<path d="M241.4 204.015C241.298 203.907 241.207 203.924 241.099 204.106C241.099 204.106 232.857 215.5 214.875 226.258C199.936 235.153 183.686 237.254 183.686 237.254C176.711 237.89 168.168 230.523 168.168 230.523L169.344 229.666C169.344 229.666 177.443 235.8 181.561 235.8C185.111 235.8 197.801 234.187 215.017 224.44C232.233 214.693 240.009 202.907 240.009 202.907C240.316 202.956 240.606 203.084 240.85 203.278C241.094 203.472 241.284 203.726 241.4 204.015Z" fill="#37474F"/>
<path d="M241.093 204.106C241.093 204.106 232.846 215.5 214.869 226.258C199.953 235.175 183.686 237.26 183.686 237.26C176.711 237.896 168.168 230.54 168.168 230.54V240.378C168.168 240.378 176.688 247.762 183.686 247.103C183.686 247.103 199.953 245.013 214.869 236.101C232.846 225.354 241.093 213.949 241.093 213.949C242.536 211.512 241.923 202.646 241.093 204.106Z" fill="#455A64"/>
<path d="M188.445 220.322C191.013 219.714 193.336 221.458 193.631 224.202C193.763 225.549 193.413 226.9 192.642 228.013C191.871 229.126 190.73 229.929 189.422 230.279C188.821 230.43 188.193 230.445 187.586 230.322C186.978 230.2 186.405 229.944 185.909 229.572C185.413 229.201 185.005 228.723 184.717 228.174C184.429 227.625 184.266 227.019 184.242 226.4C183.998 223.651 185.878 220.953 188.445 220.322Z" fill="white"/>
<path d="M234.124 194.177C232.562 195.733 231.562 199.067 231.886 201.629C232.21 204.191 233.675 204.997 235.152 203.429C236.629 201.862 237.629 198.528 237.39 195.977C237.151 193.427 235.68 192.62 234.124 194.177Z" fill="white"/>
<path d="M198.022 216.977C202.986 215.414 207.751 213.279 212.222 210.615C212.932 210.2 213.5 210.524 213.5 211.342V212.382C213.479 212.83 213.353 213.267 213.131 213.657C212.908 214.047 212.597 214.379 212.222 214.625C207.751 217.289 202.986 219.424 198.022 220.987C197.855 221.049 197.674 221.069 197.497 221.043C197.32 221.018 197.153 220.948 197.01 220.84C196.867 220.733 196.754 220.591 196.681 220.428C196.607 220.265 196.576 220.086 196.591 219.908V218.868C196.609 218.445 196.755 218.037 197.011 217.699C197.267 217.361 197.619 217.109 198.022 216.977Z" fill="#37474F"/>
<path d="M228.904 200.084V201.124C228.855 202.056 228.448 202.933 227.768 203.572C224.371 206.416 220.819 209.071 217.129 211.524C216.448 211.973 215.885 211.666 215.885 210.848V209.82C215.916 209.374 216.043 208.939 216.257 208.547C216.472 208.155 216.77 207.814 217.129 207.548C220.818 205.094 224.37 202.439 227.768 199.596C228.416 199.034 228.904 199.266 228.904 200.084Z" fill="#37474F"/>
<path d="M198.022 224.236C202.986 222.675 207.751 220.542 212.222 217.88C212.932 217.465 213.5 217.783 213.5 218.607V219.646C213.477 220.094 213.349 220.53 213.127 220.92C212.905 221.309 212.595 221.641 212.222 221.89C207.75 224.549 202.985 226.682 198.022 228.246C197.855 228.31 197.674 228.331 197.496 228.306C197.318 228.281 197.15 228.211 197.007 228.103C196.864 227.995 196.75 227.853 196.678 227.689C196.605 227.525 196.575 227.345 196.591 227.167V226.127C196.611 225.704 196.758 225.298 197.014 224.96C197.269 224.623 197.621 224.37 198.022 224.236Z" fill="#37474F"/>
<path d="M228.904 207.372V208.411C228.854 209.341 228.447 210.216 227.768 210.854C224.371 213.698 220.819 216.353 217.129 218.806C216.448 219.26 215.885 218.953 215.885 218.13V217.09C215.916 216.644 216.043 216.21 216.257 215.817C216.472 215.425 216.77 215.084 217.129 214.818C220.816 212.361 224.367 209.706 227.768 206.866C228.416 206.315 228.904 206.548 228.904 207.372Z" fill="#37474F"/>
<g opacity="0.15">
<path d="M200.158 187.759C192.523 191.886 184.617 195.492 176.495 198.551C176.324 198.606 176.169 198.701 176.042 198.828C175.915 198.955 175.82 199.11 175.765 199.281C175.709 199.451 175.695 199.633 175.723 199.81C175.751 199.987 175.821 200.155 175.927 200.3L175.966 200.357C176.222 200.708 176.569 200.982 176.97 201.149C177.37 201.316 177.809 201.37 178.238 201.306C181.726 200.544 191.155 198.091 202.873 191.792C203.04 191.705 203.188 191.583 203.304 191.434C203.421 191.285 203.504 191.113 203.548 190.929C203.592 190.746 203.596 190.555 203.56 190.369C203.524 190.184 203.448 190.008 203.338 189.855L202.276 188.276C202.045 187.948 201.703 187.715 201.314 187.62C200.924 187.525 200.514 187.574 200.158 187.759Z" fill="black"/>
</g>
<g opacity="0.15">
<path d="M224.673 170.764C218.575 176.015 212.042 180.739 205.145 184.884C204.979 184.98 204.835 185.11 204.722 185.264C204.609 185.419 204.53 185.595 204.489 185.782C204.447 185.969 204.446 186.163 204.483 186.35C204.521 186.538 204.597 186.716 204.707 186.872L205.781 188.463C206.01 188.791 206.354 189.022 206.746 189.109C207.137 189.197 207.546 189.134 207.894 188.934C218.515 182.533 224.195 176.898 226.797 173.831C227.056 173.492 227.205 173.081 227.224 172.655C227.243 172.229 227.132 171.807 226.905 171.445L226.615 171.014C226.516 170.855 226.382 170.72 226.225 170.619C226.067 170.518 225.889 170.453 225.703 170.429C225.517 170.405 225.328 170.423 225.15 170.481C224.972 170.539 224.809 170.635 224.673 170.764Z" fill="black"/>
</g>
<path d="M226.751 165.061C226.751 165.061 217.266 174.598 201.634 183.697C186.003 192.797 169.344 198.199 169.344 198.199L160.369 154.707L196.244 134.003L212.744 124.483L217.777 121.564L226.751 165.061Z" fill="#455A64"/>
<path d="M217.777 121.552L212.744 124.466L196.244 134.003L160.369 154.706L169.344 198.198L169.957 197.994L170.082 197.954L170.707 197.738L170.968 197.664H171.025H171.082L171.508 197.511L172.172 197.278L172.831 197.039L173.263 196.88L173.831 196.67L175.751 195.943L176.182 195.778C177.722 195.182 179.465 194.489 181.357 193.7L183.22 192.91L183.521 192.779L183.862 192.637C184.254 192.456 184.662 192.285 185.071 192.104L185.424 191.95L186.242 191.581L187.179 191.161C187.86 190.854 188.553 190.53 189.252 190.201C189.951 189.871 190.655 189.536 191.365 189.195C191.899 188.934 192.433 188.673 192.967 188.4L194.262 187.753L194.398 187.684L195.721 186.997L195.829 186.94L196.994 186.327L197.925 185.827C198.683 185.422 199.419 185.013 200.135 184.6L201.606 183.76L202.946 182.896C203.327 182.675 203.702 182.442 204.082 182.215C204.224 182.129 204.372 182.044 204.508 181.953C204.934 181.698 205.366 181.431 205.781 181.17L205.934 181.073L206.542 180.687C206.809 180.516 207.064 180.346 207.331 180.181L208.087 179.681L208.837 179.193C209.149 178.988 209.461 178.784 209.762 178.574C210.382 178.153 210.984 177.744 211.574 177.33L211.694 177.245L212.375 176.773C213.273 176.137 214.136 175.512 214.954 174.91L215.567 174.45L216.135 174.007L216.703 173.564C217.09 173.274 217.459 172.996 217.839 172.706L217.885 172.672L218.345 172.314L219.396 171.474L220.06 170.946C220.197 170.832 220.327 170.718 220.458 170.616C220.589 170.514 220.719 170.395 220.844 170.298L221.225 169.986C221.224 169.976 221.224 169.967 221.225 169.957L222.088 169.264C223.15 168.367 224.042 167.56 224.746 166.935C224.835 166.844 224.93 166.759 225.03 166.68L225.087 166.623L225.382 166.35C226.217 165.584 226.672 165.129 226.734 165.067L217.777 121.552ZM198.437 182.328C198.439 182.339 198.439 182.351 198.437 182.362C198.425 182.45 198.408 182.538 198.385 182.624V182.697C198.357 182.766 198.334 182.839 198.306 182.908C198.295 182.939 198.282 182.969 198.266 182.998C198.236 183.083 198.198 183.165 198.153 183.243C198.001 183.517 197.797 183.759 197.55 183.953C197.47 184.017 197.382 184.073 197.289 184.117C195.176 185.253 193.063 186.355 191.001 187.361L189.916 187.895C189.049 188.307 188.192 188.709 187.343 189.099L186.162 189.667L184.14 190.564C183.805 190.718 183.475 190.86 183.152 190.996L182.192 191.411C180.919 191.979 179.704 192.456 178.556 192.921C177.949 193.171 177.352 193.404 176.784 193.631L175.949 193.955C174.58 194.483 173.376 194.938 172.36 195.307C172.031 195.441 171.666 195.451 171.33 195.338C170.994 195.224 170.71 194.993 170.531 194.688C170.444 194.527 170.381 194.355 170.343 194.177L164.822 166.674C164.743 166.172 164.811 165.658 165.019 165.194C165.226 164.73 165.565 164.336 165.992 164.061L189.28 150.617C189.456 150.497 189.658 150.424 189.869 150.404C190.081 150.384 190.293 150.418 190.488 150.502C190.683 150.587 190.853 150.719 190.982 150.887C191.112 151.055 191.196 151.253 191.229 151.463L196.744 174.49L198.414 181.465L198.442 181.578V181.664C198.448 181.696 198.448 181.728 198.442 181.76C198.445 181.792 198.445 181.825 198.442 181.857C198.448 181.925 198.448 181.993 198.442 182.061C198.447 182.15 198.446 182.24 198.437 182.328ZM218.953 169.56L218.544 169.906C217.186 171.002 215.641 172.178 213.943 173.467C213.375 173.899 212.767 174.331 212.148 174.774L211.483 175.257C210.58 175.904 209.643 176.552 208.643 177.216L207.678 177.864C207.354 178.085 207.019 178.301 206.684 178.517C206.349 178.733 206.008 178.966 205.667 179.182C204.446 179.971 203.179 180.761 201.873 181.539C201.701 181.661 201.501 181.736 201.292 181.759C201.082 181.781 200.87 181.749 200.677 181.665C200.484 181.582 200.315 181.45 200.187 181.283C200.059 181.116 199.977 180.918 199.947 180.709L199.908 180.539L198.232 173.587L192.768 150.617C192.672 150.117 192.729 149.599 192.932 149.132C193.135 148.665 193.473 148.27 193.904 147.998L198.317 145.459L216.283 135.065L217.084 134.611L217.152 134.576C217.323 134.471 217.519 134.41 217.72 134.4C217.921 134.391 218.121 134.432 218.302 134.52C218.483 134.609 218.639 134.741 218.754 134.906C218.87 135.071 218.942 135.262 218.964 135.463L224.457 162.727C224.582 163.565 224.394 164.421 223.928 165.129C223.866 165.226 223.798 165.322 223.73 165.408C223.662 165.485 223.59 165.559 223.514 165.629L223.224 165.89C223.093 166.015 222.957 166.135 222.821 166.254L221.594 167.322C221.157 167.702 220.674 168.111 220.163 168.537L219.089 169.423L218.958 169.526L218.953 169.56Z" fill="#17C5B5"/>
<g opacity="0.3">
<path d="M217.777 121.552L212.744 124.466L196.244 134.003L160.369 154.706L169.344 198.198L169.957 197.994L170.082 197.954L170.707 197.738L170.968 197.664H171.025H171.082L171.508 197.511L172.172 197.278L172.831 197.039L173.263 196.88L173.831 196.67L175.751 195.943L176.182 195.778C177.722 195.182 179.465 194.489 181.357 193.7L183.22 192.91L183.521 192.779L183.862 192.637C184.254 192.456 184.662 192.285 185.071 192.104L185.424 191.95L186.242 191.581L187.179 191.161C187.86 190.854 188.553 190.53 189.252 190.201C189.951 189.871 190.655 189.536 191.365 189.195C191.899 188.934 192.433 188.673 192.967 188.4L194.262 187.753L194.398 187.684L195.721 186.997L195.829 186.94L196.994 186.327L197.925 185.827C198.683 185.422 199.419 185.013 200.135 184.6L201.606 183.76L202.946 182.896C203.327 182.675 203.702 182.442 204.082 182.215C204.224 182.129 204.372 182.044 204.508 181.953C204.934 181.698 205.366 181.431 205.781 181.17L205.934 181.073L206.542 180.687C206.809 180.516 207.064 180.346 207.331 180.181L208.087 179.681L208.837 179.193C209.149 178.988 209.461 178.784 209.762 178.574C210.382 178.153 210.984 177.744 211.574 177.33L211.694 177.245L212.375 176.773C213.273 176.137 214.136 175.512 214.954 174.91L215.567 174.45L216.135 174.007L216.703 173.564C217.09 173.274 217.459 172.996 217.839 172.706L217.885 172.672L218.345 172.314L219.396 171.474L220.06 170.946C220.197 170.832 220.327 170.718 220.458 170.616C220.589 170.514 220.719 170.395 220.844 170.298L221.225 169.986C221.224 169.976 221.224 169.967 221.225 169.957L222.088 169.264C223.15 168.367 224.042 167.56 224.746 166.935C224.835 166.844 224.93 166.759 225.03 166.68L225.087 166.623L225.382 166.35C226.217 165.584 226.672 165.129 226.734 165.067L217.777 121.552ZM198.437 182.328C198.439 182.339 198.439 182.351 198.437 182.362C198.425 182.45 198.408 182.538 198.385 182.624V182.697C198.357 182.766 198.334 182.839 198.306 182.908C198.295 182.939 198.282 182.969 198.266 182.998C198.236 183.083 198.198 183.165 198.153 183.243C198.001 183.517 197.797 183.759 197.55 183.953C197.47 184.017 197.382 184.073 197.289 184.117C195.176 185.253 193.063 186.355 191.001 187.361L189.916 187.895C189.049 188.307 188.192 188.709 187.343 189.099L186.162 189.667L184.14 190.564C183.805 190.718 183.475 190.86 183.152 190.996L182.192 191.411C180.919 191.979 179.704 192.456 178.556 192.921C177.949 193.171 177.352 193.404 176.784 193.631L175.949 193.955C174.58 194.483 173.376 194.938 172.36 195.307C172.031 195.441 171.666 195.451 171.33 195.338C170.994 195.224 170.71 194.993 170.531 194.688C170.444 194.527 170.381 194.355 170.343 194.177L164.822 166.674C164.743 166.172 164.811 165.658 165.019 165.194C165.226 164.73 165.565 164.336 165.992 164.061L189.28 150.617C189.456 150.497 189.658 150.424 189.869 150.404C190.081 150.384 190.293 150.418 190.488 150.502C190.683 150.587 190.853 150.719 190.982 150.887C191.112 151.055 191.196 151.253 191.229 151.463L196.744 174.49L198.414 181.465L198.442 181.578V181.664C198.448 181.696 198.448 181.728 198.442 181.76C198.445 181.792 198.445 181.825 198.442 181.857C198.448 181.925 198.448 181.993 198.442 182.061C198.447 182.15 198.446 182.24 198.437 182.328ZM218.953 169.56L218.544 169.906C217.186 171.002 215.641 172.178 213.943 173.467C213.375 173.899 212.767 174.331 212.148 174.774L211.483 175.257C210.58 175.904 209.643 176.552 208.643 177.216L207.678 177.864C207.354 178.085 207.019 178.301 206.684 178.517C206.349 178.733 206.008 178.966 205.667 179.182C204.446 179.971 203.179 180.761 201.873 181.539C201.701 181.661 201.501 181.736 201.292 181.759C201.082 181.781 200.87 181.749 200.677 181.665C200.484 181.582 200.315 181.45 200.187 181.283C200.059 181.116 199.977 180.918 199.947 180.709L199.908 180.539L198.232 173.587L192.768 150.617C192.672 150.117 192.729 149.599 192.932 149.132C193.135 148.665 193.473 148.27 193.904 147.998L198.317 145.459L216.283 135.065L217.084 134.611L217.152 134.576C217.323 134.471 217.519 134.41 217.72 134.4C217.921 134.391 218.121 134.432 218.302 134.52C218.483 134.609 218.639 134.741 218.754 134.906C218.87 135.071 218.942 135.262 218.964 135.463L224.457 162.727C224.582 163.565 224.394 164.421 223.928 165.129C223.866 165.226 223.798 165.322 223.73 165.408C223.662 165.485 223.59 165.559 223.514 165.629L223.224 165.89C223.093 166.015 222.957 166.135 222.821 166.254L221.594 167.322C221.157 167.702 220.674 168.111 220.163 168.537L219.089 169.423L218.958 169.526L218.953 169.56Z" fill="black"/>
</g>
<path d="M165.123 161.744L216.919 131.827C217.253 131.614 217.518 131.308 217.681 130.947C217.845 130.586 217.9 130.186 217.839 129.794L216.897 125.119C216.88 124.958 216.822 124.804 216.727 124.672C216.632 124.541 216.504 124.436 216.356 124.37C216.209 124.303 216.046 124.276 215.884 124.292C215.723 124.308 215.569 124.366 215.437 124.46L163.647 154.377C163.311 154.59 163.045 154.897 162.882 155.259C162.718 155.621 162.664 156.024 162.726 156.416L163.664 161.085C163.68 161.246 163.739 161.401 163.833 161.532C163.928 161.664 164.056 161.768 164.204 161.835C164.352 161.902 164.514 161.928 164.676 161.912C164.837 161.896 164.991 161.838 165.123 161.744Z" fill="#455A64"/>
<path d="M198.403 181.556C198.502 182.048 198.447 182.559 198.243 183.018C198.04 183.477 197.698 183.862 197.267 184.118C189.232 188.431 180.899 192.163 172.331 195.285C172.125 195.368 171.903 195.403 171.681 195.389C171.46 195.374 171.244 195.31 171.05 195.201C170.857 195.092 170.69 194.941 170.563 194.759C170.436 194.577 170.351 194.368 170.315 194.149L169.951 192.337C174.984 188.679 187.207 179.949 196.591 174.53C196.627 174.505 196.665 174.483 196.704 174.462L198.403 181.556Z" fill="#37474F"/>
<path d="M223.951 165.147C223.832 165.338 223.687 165.512 223.519 165.663C216.817 171.628 209.572 176.952 201.879 181.567C201.707 181.689 201.507 181.765 201.297 181.787C201.088 181.81 200.876 181.777 200.683 181.694C200.489 181.611 200.32 181.479 200.193 181.312C200.065 181.144 199.982 180.947 199.953 180.738L198.249 173.598C205.56 169.567 213.169 166.101 221.009 163.232L223.951 165.147Z" fill="#37474F"/>
<path opacity="0.1" d="M220.338 159.245L214.062 155.633C213.312 155.145 212.689 154.486 212.241 153.712C211.794 152.937 211.536 152.067 211.489 151.174V137.854L216.3 135.071L217.095 134.611C217.118 134.595 217.143 134.581 217.169 134.571L221.713 158.251C221.946 159.37 221.321 159.813 220.338 159.245Z" fill="white"/>
<path opacity="0.1" d="M206.917 140.495V149.719C206.917 150.708 206.23 151.105 205.372 150.611L197.392 146.005L198.34 145.437L206.917 140.495Z" fill="white"/>
<path d="M217.777 121.558L160.369 154.701L140.637 140.2L118.048 127.159L175.455 94.0215L198.045 107.063L217.777 121.558Z" fill="#17C5B5"/>
<path d="M154.496 182.357L158.773 179.875C158.915 179.771 159.082 179.707 159.257 179.69C159.432 179.673 159.608 179.704 159.767 179.778L160.778 180.381C160.923 180.481 161.037 180.618 161.11 180.778C161.183 180.938 161.212 181.115 161.193 181.289V191.547C161.167 192.035 161.026 192.509 160.783 192.931C160.539 193.354 160.199 193.712 159.79 193.978L155.513 196.461C155.371 196.565 155.205 196.63 155.03 196.648C154.855 196.665 154.678 196.636 154.519 196.563C154.269 196.415 153.758 196.103 153.508 195.961C153.363 195.859 153.249 195.721 153.176 195.56C153.103 195.399 153.074 195.222 153.093 195.046V184.788C153.119 184.301 153.26 183.827 153.504 183.405C153.748 182.982 154.088 182.624 154.496 182.357Z" fill="#FAFAFA"/>
<path d="M153.076 184.788V195.052C153.058 195.227 153.087 195.403 153.159 195.563C153.232 195.723 153.347 195.86 153.491 195.961C153.735 196.097 154.121 196.341 154.474 196.529C154.341 196.424 154.237 196.287 154.17 196.131C154.104 195.975 154.077 195.806 154.093 195.637V185.39C154.112 184.911 154.25 184.444 154.496 184.033L153.474 183.431C153.231 183.843 153.094 184.31 153.076 184.788Z" fill="#E0E0E0"/>
<path d="M159.773 193.978L155.496 196.46C154.723 196.909 154.093 196.546 154.093 195.654V185.396C154.12 184.908 154.261 184.434 154.504 184.01C154.748 183.587 155.088 183.227 155.496 182.959L159.773 180.477C160.545 180.034 161.176 180.392 161.176 181.289V191.547C161.15 192.034 161.01 192.508 160.766 192.931C160.522 193.353 160.182 193.712 159.773 193.978Z" fill="#F0F0F0"/>
<path d="M163.584 195.682C164.003 195.956 164.352 196.326 164.602 196.76C164.851 197.194 164.995 197.681 165.021 198.181C165.021 199.101 164.379 199.476 163.584 199.016C163.165 198.743 162.816 198.373 162.566 197.939C162.316 197.505 162.173 197.017 162.147 196.517C162.147 195.597 162.789 195.222 163.584 195.682Z" fill="#37474F"/>
<path d="M158.529 200.504C158.341 200.502 158.157 200.451 157.995 200.357C157.833 200.264 157.698 200.13 157.605 199.969C157.512 199.807 157.465 199.623 157.467 199.437V189.031C157.46 188.98 157.465 188.929 157.48 188.881C157.495 188.832 157.52 188.787 157.553 188.749C157.587 188.711 157.628 188.681 157.674 188.66C157.721 188.639 157.771 188.628 157.822 188.628C157.872 188.628 157.923 188.639 157.969 188.66C158.015 188.681 158.057 188.711 158.09 188.749C158.124 188.787 158.149 188.832 158.164 188.881C158.179 188.929 158.183 188.98 158.177 189.031V199.448C158.175 199.51 158.19 199.572 158.221 199.626C158.252 199.681 158.298 199.725 158.353 199.755C158.406 199.787 158.467 199.804 158.529 199.804C158.591 199.804 158.652 199.787 158.705 199.755L163.408 197.04C163.448 197.016 163.493 197.001 163.539 196.995C163.585 196.989 163.632 196.992 163.677 197.004C163.721 197.016 163.764 197.037 163.8 197.066C163.837 197.094 163.868 197.13 163.891 197.17C163.937 197.253 163.949 197.35 163.924 197.441C163.9 197.532 163.841 197.61 163.76 197.659L159.04 200.368C158.884 200.455 158.708 200.502 158.529 200.504Z" fill="#263238"/>
<path d="M55.4254 210.848C55.189 211.362 55.0948 211.931 55.1528 212.495C55.3554 213.225 55.4473 213.981 55.4254 214.738C55.3345 215.874 55.0903 216.221 55.0051 217.01C54.8811 217.801 55.053 218.61 55.4879 219.282C55.9764 220.015 57.0669 220.6 59.072 220.453C60.6965 220.333 61.3837 219.424 61.3837 218.465L55.4254 210.848Z" fill="#263238"/>
<path d="M56.232 209.888C57.2544 210.456 58.9243 209.791 60.1682 209.127L61.4746 201.402L55.823 200.146L56.232 209.888Z" fill="#FFA8A7"/>
<path d="M55.8116 208.513C55.7689 208.723 55.7442 208.935 55.7378 209.149C55.6923 209.524 55.5901 209.888 55.5162 210.285C55.5162 210.382 55.4765 210.484 55.4594 210.581C55.4111 211.339 55.4359 212.099 55.5333 212.853C55.5065 213.753 55.3827 214.648 55.1641 215.522C54.8574 217.118 54.863 218.112 56.3001 219.152C57.0237 219.63 57.8914 219.841 58.7538 219.748C59.4525 219.748 60.4181 219.561 60.7702 219.18C61.063 218.931 61.2631 218.591 61.3382 218.215C61.3382 216.511 60.651 214.608 60.4692 212.938C60.4043 212.488 60.3758 212.034 60.384 211.58C60.4238 211.012 60.5942 210.444 60.6339 209.876C60.6719 209.667 60.6379 209.451 60.5374 209.263C60.439 209.161 60.3204 209.082 60.1893 209.029C60.0582 208.976 59.9175 208.951 59.7762 208.956C59.0378 208.888 58.2994 208.843 57.5554 208.814C57.4679 208.8 57.3786 208.804 57.2927 208.826C57.2068 208.847 57.1262 208.886 57.0555 208.939C56.9192 209.07 56.9249 209.291 56.8908 209.479C56.8567 209.666 56.7261 209.888 56.5386 209.859C56.4774 209.844 56.4223 209.81 56.3807 209.762C56.3391 209.714 56.313 209.655 56.3058 209.592C56.3058 209.467 56.1922 208.496 56.1922 208.371C56.1581 208.382 55.8968 208.348 55.8116 208.513Z" fill="#37474F"/>
<path d="M61.4689 217.925C61.4679 217.57 61.3739 217.221 61.1963 216.914C60.3727 215.437 56.2376 215.539 54.9994 217.09C54.9647 217.503 55.0438 217.918 55.228 218.289C55.4123 218.661 55.6946 218.975 56.0445 219.197C56.7602 219.731 57.8905 219.805 58.8164 219.765C59.5379 219.765 60.2425 219.547 60.8384 219.14C61.0394 219.009 61.2031 218.829 61.3135 218.616C61.424 218.403 61.4775 218.165 61.4689 217.925Z" fill="#455A64"/>
<path d="M66.8648 210.115C67.7282 211.984 69.0857 211.251 70.8408 210.035L71.6985 198.852L66.2798 200.317L66.8648 210.115Z" fill="#FFA8A7"/>
<path d="M77.9864 214.381C78.0878 214.683 78.0695 215.012 77.9353 215.301C77.8047 215.568 76.396 216.363 74.4989 216.238C73.0883 216.136 71.73 215.662 70.5627 214.864C69.8303 214.433 68.9921 214.217 68.143 214.239C67.2001 214.188 65.9675 213.716 65.7574 213.273C65.6518 212.879 65.6636 212.462 65.7915 212.075L77.9864 214.381Z" fill="#263238"/>
<path d="M71.335 208.456C71.4038 208.595 71.4645 208.737 71.5167 208.882C71.7285 209.408 72.0705 209.871 72.5107 210.228C73.1485 210.711 73.8381 211.12 74.5669 211.45C75.0213 211.677 75.5098 211.756 75.9755 211.938C76.5048 212.132 77.0129 212.38 77.4921 212.676C77.6772 212.803 77.8287 212.972 77.9333 213.17C78.038 213.368 78.0928 213.588 78.0928 213.812C78.0928 214.036 78.038 214.257 77.9333 214.455C77.8287 214.653 77.6772 214.822 77.4921 214.948C76.0204 215.619 74.3559 215.734 72.8061 215.272C71.7042 214.96 70.483 213.784 69.0346 213.67C68.1144 213.597 66.3763 213.341 65.7856 212.642C65.5982 211.626 65.8595 211.347 66.098 210.501C66.2266 210.022 66.3047 209.531 66.3309 209.036C66.3309 208.774 66.2003 208.019 66.7512 207.951V208.519C66.7512 208.519 66.8478 208.712 67.4158 208.837C67.5975 208.877 67.7339 209.121 67.8247 209.348C67.9156 209.575 67.9667 209.74 68.1485 209.746C68.2123 209.741 68.2737 209.719 68.3259 209.682C68.378 209.645 68.4188 209.594 68.4439 209.535C68.4921 209.417 68.532 209.296 68.5631 209.172C68.6453 208.979 68.7679 208.806 68.9228 208.665C69.0776 208.524 69.2611 208.418 69.4606 208.354C69.7917 208.258 70.1329 208.201 70.4773 208.184C70.7443 208.155 70.9601 208.053 71.1873 208.28C71.2442 208.332 71.2939 208.391 71.335 208.456Z" fill="#37474F"/>
<path d="M66.2231 209.899C66.1833 210.109 66.1436 210.314 66.0868 210.518C65.8482 211.364 65.5869 211.654 65.7744 212.659C66.2288 213.193 67.3591 213.472 68.2736 213.602C68.586 211.864 67.5011 210.563 66.2231 209.899Z" fill="#455A64"/>
<path d="M56.6353 165.499C56.3967 172.741 56.4989 175.643 56.5273 188.963C55.9115 191.005 55.5827 193.123 55.5504 195.256C55.4595 198.59 55.8117 205.48 55.8117 205.48C55.8117 205.48 58.5721 207.184 60.9237 205.832C60.9237 205.832 62.7981 195.693 63.5194 191.064C64.1499 186.98 64.7974 181.005 64.7974 181.005L65.7005 189.497C65.4431 191.637 65.3917 193.798 65.5472 195.949C65.7005 198.13 66.2969 205.821 66.2969 205.821C66.2969 205.821 68.7961 207.565 71.4089 206.167C71.4089 206.167 72.6358 190.865 72.6756 188.883C72.7153 186.611 71.8349 163.658 71.8349 163.658L56.6353 165.499Z" fill="#455A64"/>
<path d="M64.7803 180.988L66.1492 173.081C66.1492 173.081 69.1198 172.82 70.767 171.162C70.767 171.162 70.4716 172.792 66.7342 173.763L65.3653 181.715L65.6834 189.457L64.7803 180.988Z" fill="#263238"/>
<path d="M77.5262 212.631C77.0984 212.4 76.6496 212.209 76.1857 212.063C75.3511 212.126 74.5728 212.508 74.0131 213.13C73.4533 213.752 73.1552 214.566 73.181 215.403C74.6197 215.8 76.153 215.669 77.5035 215.034C77.6938 214.897 77.8492 214.718 77.9571 214.51C78.0651 214.302 78.1225 214.072 78.1247 213.838C78.1269 213.604 78.0739 213.373 77.9699 213.163C77.8659 212.953 77.7139 212.771 77.5262 212.631Z" fill="#455A64"/>
<path d="M67.0922 146.942C68.3702 146.908 70.7558 146.879 72.4144 149.026C73.5845 150.537 76.7823 154.178 78.5829 156.569C79.8609 155.303 82.9508 152.236 83.4677 151.327C83.9543 150.475 84.3539 149.577 84.6605 148.646C84.86 148.103 85.0065 147.542 85.0978 146.97C85.2154 146.267 85.2497 145.552 85.2001 144.84C85.2001 144.204 86.1429 144.551 86.4837 145.573C86.652 146.138 86.7306 146.727 86.7166 147.317L88.2673 146.607C88.8353 146.362 90.6131 145.783 90.7608 146.783C90.7442 147.009 90.7595 147.237 90.8062 147.459C90.8603 147.551 90.9231 147.639 90.9937 147.72C91.1112 147.882 91.1836 148.073 91.2035 148.273C91.2235 148.472 91.1903 148.673 91.1073 148.856C91.0181 149.015 90.9804 149.197 90.9993 149.379C91.0355 149.566 91.0355 149.759 90.9993 149.947C90.9351 150.09 90.8571 150.227 90.7665 150.355C90.6769 150.533 90.6192 150.726 90.5961 150.923C90.5743 151.119 90.5246 151.31 90.4484 151.491C90.2439 151.929 89.71 152.02 89.3124 152.156C88.6803 152.352 88.0585 152.579 87.4493 152.838C86.4497 153.468 83.6835 158.205 80.923 161.221C79.9745 162.255 79.1338 162.897 78.2591 162.761C77.5491 162.732 76.6914 162.068 75.8678 161.318C73.238 158.944 68.9893 154.502 68.9893 154.502C67.2172 152.349 66.8537 148.402 67.0922 146.942Z" fill="#FFA8A7"/>
<path d="M67.0922 146.942C68.3223 146.773 69.5748 146.971 70.6933 147.51C71.8293 148.078 72.0565 148.436 73.13 149.697C74.2036 150.957 75.6974 152.855 75.6974 152.855C75.6974 152.855 74.8511 156.444 71.3579 157.336L66.7571 151.991L67.0922 146.942Z" fill="#455A64"/>
<path d="M87.4097 147.447C86.8417 147.623 86.711 148.015 86.7338 148.788C86.7338 149.259 86.6145 150.134 86.1033 150.492C86.3496 150.463 86.5813 150.36 86.7678 150.196C87.0121 149.946 87.0745 149.918 87.2109 150.06C87.3142 150.152 87.4363 150.22 87.5687 150.259C87.4823 150.359 87.4306 150.485 87.4214 150.617C87.4122 150.749 87.4459 150.88 87.5176 150.992C87.7675 151.395 88.8694 151.395 89.7896 150.918C89.7896 150.918 88.3242 151.389 87.9777 150.918C87.6312 150.446 88.4094 149.861 88.9887 149.697C88.9887 149.697 87.5687 150.049 87.3472 149.589C87.1257 149.129 87.7107 148.765 88.5457 148.544C88.5457 148.544 87.3756 148.765 87.1711 148.373C87.091 148.216 87.071 148.036 87.115 147.865C87.1589 147.694 87.2637 147.546 87.4097 147.447Z" fill="#F28F8F"/>
<path d="M71.568 152.474C71.2499 150.151 70.9432 147.027 67.3421 146.885L62.6618 146.664C61.5258 146.959 56.4138 148.441 56.4138 148.441V155.825C56.4138 155.825 56.5842 158.91 56.7943 162.8C56.7943 162.8 56.374 167.344 56.4138 169.111C59.7423 171.218 68.5747 170.616 72.0849 168.497C72.2496 165.288 71.9031 154.775 71.568 152.474Z" fill="#17C5B5"/>
<path d="M65.8256 139.285L58.5041 138.905C57.1125 140.007 54.5281 142.313 54.5281 142.943V143.381C54.5232 143.397 54.5232 143.415 54.5281 143.432C54.795 143.92 55.7379 144.204 57.192 144.199C58.896 144.199 61.594 143.977 62.304 143.358C63.3434 142.421 65.8313 139.7 65.8313 139.7H65.4621L65.8256 139.285Z" fill="#17C5B5"/>
<path opacity="0.2" d="M65.8256 139.285L58.5041 138.905C57.1125 140.007 54.5281 142.313 54.5281 142.943V143.381C54.5232 143.397 54.5232 143.415 54.5281 143.432C54.795 143.92 55.7379 144.204 57.192 144.199C58.896 144.199 61.594 143.977 62.304 143.358C63.3434 142.421 65.8313 139.7 65.8313 139.7H65.4621L65.8256 139.285Z" fill="black"/>
<path d="M58.504 139.313C57.0442 140.449 54.2838 142.943 54.5564 143.431C54.829 143.92 55.7662 144.204 57.2203 144.198C58.9243 144.198 61.6223 143.977 62.3323 143.358C63.3717 142.42 65.8596 139.7 65.8596 139.7L58.504 139.313Z" fill="#17C5B5"/>
<path opacity="0.4" d="M58.504 139.313C57.0442 140.449 54.2838 142.943 54.5564 143.431C54.829 143.92 55.7662 144.204 57.2203 144.198C58.9243 144.198 61.6223 143.977 62.3323 143.358C63.3717 142.42 65.8596 139.7 65.8596 139.7L58.504 139.313Z" fill="black"/>
<path d="M58.5039 139.314C58.5039 139.53 59.2423 139.956 59.2423 139.956L59.0037 138.672L58.5039 139.314Z" fill="#17C5B5"/>
<path opacity="0.3" d="M58.5039 139.314C58.5039 139.53 59.2423 139.956 59.2423 139.956L59.0037 138.672L58.5039 139.314Z" fill="black"/>
<path d="M70.0628 134.508C69.7065 133.85 69.2007 133.284 68.586 132.856C67.5012 132.106 66.0982 131.987 64.7804 132.038C63.9397 132.053 63.1049 132.181 62.2983 132.418C61.5336 132.652 60.836 133.065 60.2638 133.623C59.6916 134.181 59.2615 134.869 59.0096 135.627C58.7014 136.567 58.6032 137.562 58.722 138.544C58.8408 139.525 59.1735 140.469 59.6968 141.307C60.1569 142.029 60.4523 142.813 60.8328 143.579C61.1566 144.21 61.4008 144.715 61.4008 144.715L61.2929 142.722L63.19 142.557C63.7359 142.465 64.2903 142.434 64.8429 142.466C65.3626 142.491 65.8741 142.33 66.2856 142.012C67.1831 141.44 68.0391 140.806 68.8473 140.115C69.3739 139.693 69.8386 139.2 70.2276 138.649C70.3179 138.521 70.3976 138.387 70.4661 138.246C70.5915 138.008 70.676 137.751 70.716 137.485C70.7821 137.11 70.7993 136.728 70.7672 136.349C70.6983 135.959 70.5858 135.578 70.432 135.213C70.322 134.971 70.1987 134.736 70.0628 134.508Z" fill="#263238"/>
<path d="M65.1384 136.155C64.7072 136.098 64.2803 136.013 63.8604 135.9H63.7411C63.586 136.374 63.31 136.799 62.9405 137.133C62.571 137.468 62.1206 137.701 61.6338 137.808C61.7859 138.602 61.8051 139.416 61.6906 140.217C61.6591 140.389 61.5976 140.554 61.5088 140.705C61.4613 140.778 61.3986 140.839 61.325 140.885C61.2515 140.931 61.1689 140.961 61.0828 140.972C60.85 140.972 60.7534 140.847 60.6796 140.665C60.5791 140.432 60.4614 140.206 60.3274 139.989C60.2717 139.893 60.2029 139.805 60.1229 139.728C59.9902 139.588 59.8238 139.483 59.6395 139.425C59.4552 139.367 59.2591 139.356 59.0698 139.395C58.8804 139.434 58.704 139.52 58.5573 139.646C58.4106 139.772 58.2985 139.933 58.2315 140.114C58.0498 140.673 58.0783 141.278 58.3116 141.816C58.5448 142.355 58.9668 142.79 59.4981 143.04C60.9579 143.443 61.2703 142.472 61.2703 142.472L61.5543 147.669C62.3438 148.492 65.3428 149.628 66.2062 150.605C66.5924 149.941 67.7 148.305 66.2403 147.379L66.1835 145.794C66.8298 145.875 67.4829 145.886 68.1317 145.828C69.1882 145.63 69.7108 144.738 69.9948 143.556C70.4492 141.693 70.3924 138.149 70.2504 136.74C70.2108 136.238 70.1368 135.739 70.0288 135.247C70.0743 135.389 69.0292 135.815 68.8928 135.815C68.4217 135.973 67.9337 136.076 67.4388 136.121C66.8726 136.178 66.3035 136.199 65.7348 136.184C65.5356 136.186 65.3365 136.176 65.1384 136.155Z" fill="#FFA8A7"/>
<path d="M66.1833 145.749C65.0857 145.576 64.0059 145.304 62.9571 144.937C62.463 144.697 62.0516 144.315 61.7756 143.84C61.9177 144.319 62.1533 144.765 62.4686 145.152C63.0991 145.908 66.2004 146.249 66.2004 146.249L66.1833 145.749Z" fill="#F28F8F"/>
<path d="M65.1668 139.586C65.1668 139.673 65.1411 139.759 65.0929 139.831C65.0447 139.904 64.9762 139.961 64.8959 139.994C64.8156 140.028 64.7271 140.038 64.6415 140.021C64.5558 140.005 64.4769 139.964 64.4145 139.903C64.3521 139.842 64.3091 139.765 64.2907 139.679C64.2723 139.594 64.2795 139.506 64.3113 139.424C64.3431 139.343 64.3981 139.273 64.4695 139.223C64.5408 139.173 64.6253 139.145 64.7124 139.143C64.7716 139.142 64.8304 139.152 64.8855 139.174C64.9405 139.195 64.9907 139.228 65.0331 139.269C65.0754 139.31 65.1091 139.36 65.1321 139.414C65.155 139.469 65.1669 139.527 65.1668 139.586Z" fill="#263238"/>
<path d="M64.5702 137.411L63.4342 137.746C63.3915 137.595 63.4091 137.434 63.4833 137.296C63.5576 137.158 63.6826 137.055 63.8318 137.007C63.9067 136.982 63.9862 136.971 64.0651 136.978C64.1441 136.985 64.2208 137.008 64.2904 137.046C64.3599 137.084 64.4207 137.136 64.4689 137.199C64.5171 137.261 64.5516 137.334 64.5702 137.411Z" fill="#263238"/>
<path d="M65.3199 142.676L66.9557 143.244C66.9234 143.353 66.8695 143.454 66.7974 143.542C66.7253 143.63 66.6364 143.702 66.5358 143.755C66.4352 143.808 66.3251 143.84 66.2119 143.85C66.0987 143.86 65.9846 143.847 65.8765 143.812C65.6525 143.734 65.4683 143.571 65.364 143.359C65.2597 143.146 65.2439 142.9 65.3199 142.676Z" fill="#B16668"/>
<path d="M65.5131 143.017C65.4417 143.017 65.3707 143.028 65.303 143.051C65.3188 143.216 65.3803 143.373 65.4807 143.504C65.5811 143.636 65.7163 143.737 65.871 143.795C65.9875 143.836 66.1119 143.85 66.2345 143.835C66.2371 143.814 66.2371 143.793 66.2345 143.773C66.2361 143.578 66.1617 143.39 66.027 143.249C65.8923 143.107 65.708 143.024 65.5131 143.017Z" fill="#F28F8F"/>
<path d="M69.8642 137.655L68.802 137.252C68.8566 137.116 68.9615 137.006 69.0949 136.946C69.2282 136.886 69.3797 136.879 69.5177 136.928C69.5883 136.953 69.6533 136.991 69.709 137.041C69.7646 137.091 69.8099 137.152 69.8421 137.219C69.8743 137.287 69.8928 137.36 69.8966 137.435C69.9004 137.51 69.8894 137.584 69.8642 137.655Z" fill="#263238"/>
<path d="M62.9684 138.075L59.248 139.353C59.4557 139.354 59.6604 139.403 59.8458 139.497C60.0312 139.59 60.1922 139.726 60.3159 139.893L62.9514 138.893L62.9684 138.075Z" fill="#37474F"/>
<path d="M69.2278 139.512C69.2267 139.599 69.2001 139.683 69.1515 139.755C69.1028 139.827 69.0342 139.883 68.9542 139.916C68.8741 139.949 68.7861 139.958 68.701 139.941C68.6159 139.925 68.5375 139.884 68.4755 139.823C68.4135 139.763 68.3705 139.686 68.352 139.601C68.3335 139.516 68.3402 139.428 68.3713 139.347C68.4024 139.266 68.4566 139.196 68.527 139.146C68.5975 139.096 68.6812 139.067 68.7678 139.064C68.8274 139.063 68.8867 139.074 68.9421 139.096C68.9975 139.118 69.048 139.151 69.0907 139.193C69.1335 139.234 69.1676 139.284 69.1911 139.339C69.2146 139.394 69.2271 139.453 69.2278 139.512Z" fill="#263238"/>
<path d="M71.2272 137.894L70.9887 137.865C70.1752 137.769 69.3513 137.811 68.552 137.99C67.7738 138.246 67.4955 138.518 67.0638 138.53C66.6321 138.541 66.3197 138.274 65.4961 138.047C64.6366 137.906 63.7599 137.906 62.9004 138.047C62.8095 138.047 62.7186 138.047 62.6391 138.081C62.5464 138.11 62.4662 138.17 62.4115 138.25C62.3569 138.331 62.331 138.427 62.338 138.524C62.3648 138.714 62.4502 138.891 62.5823 139.03C62.619 139.093 62.6458 139.162 62.6618 139.234C62.719 139.709 62.8159 140.178 62.9515 140.637C63.0301 140.823 63.1395 140.994 63.2752 141.143C63.3282 141.194 63.3852 141.242 63.4456 141.285L63.5422 141.353C63.6337 141.408 63.7308 141.454 63.8319 141.489H63.8773H63.9568H64.0364C64.1206 141.507 64.206 141.518 64.292 141.523H64.5419C64.9159 141.547 65.2882 141.455 65.609 141.261C65.9297 141.067 66.1837 140.78 66.3368 140.438C66.6151 139.899 66.5583 139.149 67.0524 139.137H67.1433C67.5012 139.217 67.4444 139.91 67.6659 140.404C67.75 140.601 67.8651 140.783 68.0067 140.944C68.0303 140.973 68.0569 141 68.0862 141.023L68.1316 141.063C68.144 141.079 68.1595 141.093 68.1771 141.103L68.2168 141.131L68.2623 141.165H68.2964H68.3248C68.4567 141.239 68.5981 141.294 68.7451 141.33H68.7848C68.9546 141.367 69.1282 141.382 69.3017 141.375C69.6296 141.389 69.9534 141.299 70.2275 141.119C70.5016 140.938 70.7122 140.676 70.8296 140.37C70.9773 139.906 71.0875 139.431 71.1591 138.95C71.1759 138.881 71.209 138.817 71.2556 138.763C71.3828 138.615 71.4638 138.433 71.4885 138.24C71.5056 138.109 71.3636 137.905 71.2272 137.894ZM66.0698 139.984C66.009 140.262 65.878 140.52 65.6892 140.734C65.5368 140.887 65.3538 141.006 65.1521 141.083C64.9505 141.16 64.7348 141.194 64.5192 141.182C64.3006 141.203 64.0805 141.165 63.8811 141.073C63.6817 140.982 63.5099 140.839 63.3832 140.66L63.3491 140.603C63.3207 140.552 63.3207 140.552 63.2923 140.501C63.2904 140.488 63.2904 140.474 63.2923 140.461V140.421C63.2909 140.412 63.2909 140.402 63.2923 140.393C63.29 140.374 63.29 140.355 63.2923 140.336C63.2923 140.285 63.2525 140.234 63.2355 140.183C63.2355 140.183 63.2355 140.12 63.2355 140.092C63.2199 140.042 63.2085 139.99 63.2014 139.938V139.882C63.1219 139.512 63.0424 138.78 63.2014 138.609C63.6414 138.34 64.1639 138.239 64.6725 138.325H64.7577C64.877 138.325 64.9963 138.359 65.1156 138.382L65.2576 138.416C65.3772 138.444 65.4948 138.481 65.6097 138.524L65.7176 138.569L65.8312 138.626H65.8767C65.9665 138.674 66.0456 138.74 66.1096 138.819C66.2335 139.2 66.2195 139.612 66.0698 139.984ZM70.7104 139.74C70.6774 139.985 70.5912 140.221 70.4577 140.43C70.3243 140.639 70.1469 140.816 69.9379 140.949C69.7596 141.033 69.5667 141.082 69.3699 141.091C69.1404 141.116 68.9088 141.075 68.701 140.975C68.4933 140.875 68.3177 140.718 68.1941 140.523V140.489V140.45C68.187 140.428 68.1775 140.407 68.1657 140.387V140.319V140.285C68.1657 140.285 68.1657 140.285 68.1657 140.256C68.1344 140.168 68.1115 140.077 68.0976 139.984C67.9896 139.61 68.0056 139.212 68.143 138.848C68.5063 138.523 68.9643 138.324 69.4494 138.28L69.8186 138.246H70.1367H70.2389L70.4207 138.274H70.4604H70.4945H70.5343H70.5854L70.6763 138.308C70.7482 138.337 70.8137 138.379 70.8694 138.433C70.9035 138.626 70.7956 139.365 70.7104 139.728V139.74Z" fill="#263238"/>
<path d="M66.9163 139.206L67.0015 142.301L68.7055 141.801L67.1151 139.16C67.0462 139.16 66.9781 139.175 66.9163 139.206Z" fill="#F28F8F"/>
<path d="M58.1463 137.541C58.1733 138.159 58.292 138.77 58.4985 139.353C58.6154 139.158 58.7609 138.982 58.9302 138.831C59.894 137.993 60.9976 137.332 62.1905 136.877C64.9042 135.727 67.9315 135.548 70.7616 136.371C70.7067 135.842 70.5806 135.322 70.3867 134.826C69.3927 132.395 67.4615 131.151 64.4284 131.526C60.8727 131.975 57.9759 134.014 58.1463 137.541Z" fill="#17C5B5"/>
<path d="M64.6216 135.23C65.7731 134.895 66.9784 134.785 68.1716 134.906C68.4559 134.658 68.7011 134.369 68.8986 134.048C69.1769 133.588 69.069 133.009 68.7907 132.912C68.5124 132.816 68.5067 133.156 67.4673 133.696C67.5997 133.358 67.6236 132.986 67.5354 132.634C67.3537 132.214 67.0072 132.986 66.2404 133.497C65.4736 134.008 64.7011 134.281 64.6216 135.23Z" fill="#263238"/>
<path d="M66.206 150.56C65.638 150.202 64.377 149.583 63.7295 150.27C63.082 150.957 62.7412 151.156 62.3152 151.031C61.8892 150.906 60.543 149.52 60.0432 148.759C59.4752 147.89 59.6115 147.538 59.6115 147.538L60.6737 146.141C60.969 145.749 61.0656 145.703 61.4405 145.675L61.4916 146.709C61.5348 146.963 61.6277 147.206 61.7652 147.425C61.9026 147.643 62.0818 147.832 62.2925 147.981C63.3489 148.702 65.4278 148.895 66.206 150.56Z" fill="#455A64"/>
<path d="M66.2061 150.56C66.5525 150.236 67.3421 149.424 67.9101 149.6C68.4781 149.776 68.7393 150.105 68.7507 149.799C68.5685 149.059 68.2507 148.36 67.8135 147.737C67.4326 147.136 66.8807 146.664 66.2288 146.379L66.2629 147.334C66.2629 147.334 66.9445 148.197 66.8649 148.714C66.7854 149.231 66.2742 150.054 66.2061 150.56Z" fill="#455A64"/>
<path d="M81.0194 159.42L68.6881 161.533L63.8147 176.171L75.5609 173.853L81.0194 159.42Z" fill="#263238"/>
<path opacity="0.15" d="M70.5228 170.281C70.3898 170.764 70.131 171.204 69.7729 171.555C69.4147 171.907 68.9699 172.157 68.4837 172.28C67.3848 172.487 66.2503 172.393 65.2007 172.007L65.6096 170.786L70.5228 170.281Z" fill="black"/>
<path opacity="0.15" d="M77.2991 161.272L77.4411 160.823C77.5149 160.573 76.8106 160.5 75.8621 160.659L74.0445 160.965C73.0959 161.124 72.2666 161.454 72.1871 161.704L72.0508 162.152L77.2991 161.272Z" fill="black"/>
<path d="M78.2873 159.608C78.3328 159.455 78.0544 159.386 77.6568 159.46L76.9355 159.591C76.9355 159.591 77.2308 158.614 75.6404 158.824C75.2178 158.849 74.8089 158.983 74.4535 159.213C74.0981 159.443 73.8084 159.761 73.6127 160.136L72.8402 160.284C72.5056 160.313 72.1929 160.462 71.9598 160.704L71.8462 160.982L78.1964 159.898C78.1964 159.898 78.2362 159.767 78.2873 159.608Z" fill="#17C5B5"/>
<path opacity="0.3" d="M78.2873 159.608C78.3328 159.455 78.0544 159.386 77.6568 159.46L76.9355 159.591C76.9355 159.591 77.2308 158.614 75.6404 158.824C75.2178 158.849 74.8089 158.983 74.4535 159.213C74.0981 159.443 73.8084 159.761 73.6127 160.136L72.8402 160.284C72.5056 160.313 72.1929 160.462 71.9598 160.704L71.8462 160.982L78.1964 159.898C78.1964 159.898 78.2362 159.767 78.2873 159.608Z" fill="black"/>
<path d="M72.2609 161.749C72.3234 161.545 72.9141 161.284 73.6525 161.108V161.039C73.715 160.818 73.6525 160.682 73.1811 160.755V160.579L77.5774 159.858L77.3843 160.034C76.8163 160.125 76.5607 160.176 76.4414 160.562L76.413 160.647C77.1003 160.585 77.549 160.647 77.5036 160.875L77.3616 161.323L72.136 162.204L72.2609 161.749Z" fill="#17C5B5"/>
<path opacity="0.4" d="M72.2609 161.749C72.3234 161.545 72.9141 161.284 73.6525 161.108V161.039C73.715 160.818 73.6525 160.682 73.1811 160.755V160.579L77.5774 159.858L77.3843 160.034C76.8163 160.125 76.5607 160.176 76.4414 160.562L76.413 160.647C77.1003 160.585 77.549 160.647 77.5036 160.875L77.3616 161.323L72.136 162.204L72.2609 161.749Z" fill="black"/>
<path d="M66.5069 168.088C67.9951 168.628 69.6707 168.492 71.2327 168.543C71.3803 168.543 71.5621 168.543 71.6246 168.708C71.6407 168.773 71.6363 168.842 71.6119 168.905C71.5875 168.968 71.5443 169.022 71.4883 169.06C71.3747 169.135 71.2716 169.225 71.1815 169.327C71.0623 169.503 71.1077 169.736 71.0736 169.946C70.9916 170.249 70.8217 170.522 70.5851 170.73C70.3589 171.001 70.095 171.238 69.8013 171.434C68.7071 171.956 67.471 172.102 66.2854 171.849C65.5513 171.688 64.8342 171.458 64.144 171.161C63.4851 170.9 59.4921 169.616 59.032 169.457C55.5104 168.134 50.6597 166.498 50.4098 164.811C50.1599 163.124 51.6196 157.569 52.358 153.303C53.0623 149.254 54.5675 148.759 56.8509 148.345C57.6443 149.483 58.1118 150.816 58.2029 152.2C58.294 153.585 58.0052 154.968 57.3678 156.2L55.8853 162.783C58.1977 164.276 60.5886 165.643 63.0478 166.879C63.5199 166.958 64.0044 166.917 64.4564 166.759C65.2938 166.509 66.175 166.441 67.0408 166.56" fill="#FFA8A7"/>
<path d="M56.936 148.293C54.5277 148.566 53.3917 149.157 52.8237 151.088C52.2557 153.019 51.3298 157.609 51.3298 157.609C52.8975 159.057 55.0275 159.313 56.811 159.347L57.6119 156.126C58.2026 154.837 59.2818 151.116 56.936 148.293Z" fill="#455A64"/>
</svg>
